<svg aria-hidden="true" style="position: absolute; width: 0; height: 0; overflow: hidden;" version="1.1" xmlns="http://www.w3.org/2000/svg" xmlns:xlink="http://www.w3.org/1999/xlink">
<defs>
<symbol id="icon-flag" viewBox="0 0 32 32">
<path d="M8 10.5v-6.5c0 0 2.976-2.236 8 0s8 0 8 0v11c0 0-2.977 2.187-8 0-3.311-1.442-5.734-0.983-7-0.502v14.502h-1v-18.5zM15.521 4.9c-4.098-1.802-6.521-0.3-6.521-0.3v8.838c0 0 3.154-1.267 7.377 0.645 3.955 1.79 6.641 0.34 6.641 0.34v-8.923c0 0-3.023 1.367-7.497-0.6v0 0z"></path>
</symbol>
<symbol id="icon-flag3" viewBox="0 0 32 32">
<path d="M9 9.5v19.5h1v-14.429l13-5.571-14-6v6.5z"></path>
</symbol>
<symbol id="icon-folder" viewBox="0 0 32 32">
<path d="M1 13v-6.009c0-1.101 0.897-1.991 2.003-1.991h10.997l2 4h11.994c1.109 0 2.006 0.893 2.006 1.995v2.005h-29zM1 14v11.009c0 1.1 0.9 1.991 1.993 1.991h25.013c1.101 0 1.993-0.893 1.993-1.995v-11.005h-29z"></path>
</symbol>
<symbol id="icon-phone" viewBox="0 0 32 32">
<path d="M24 0h-16c-1.658 0-3 1.343-3 3v26c0 1.658 1.343 3 3 3h16c1.656 0 3-1.344 3-3v-26c0-1.658-1.344-3-3-3zM25 29c0 0.551-0.449 1-1 1h-16c-0.552 0-1-0.447-1-1v-2.004h18v2.004zM25 25.996h-18v-19.996h18v19.996zM25 5h-18v-2c0-0.552 0.448-1 1-1h16c0.551 0 1 0.448 1 1v2zM18 3.5c0 0.276-0.225 0.5-0.5 0.5h-3c-0.277 0-0.5-0.224-0.5-0.5v0c0-0.277 0.223-0.5 0.5-0.5h3c0.275 0 0.5 0.223 0.5 0.5v0zM17 28.496c0 0.275-0.225 0.5-0.5 0.5h-1c-0.276 0-0.5-0.225-0.5-0.5v0c0-0.277 0.224-0.5 0.5-0.5h1c0.275 0 0.5 0.223 0.5 0.5v0z"></path>
</symbol>
<symbol id="icon-reload" viewBox="0 0 24 24">
<path d="M13.818 3.080c-4.486 0-8.195 3.118-8.758 7.513l-3.798-0.735 3.738 5.529 5.529-3.735-3.477-0.673c0.471-2.821 3.389-5.898 6.84-5.898 3.77 0 6.846 3.231 6.846 7.002s-3.76 6.838-6.76 6.838v2c5 0 8.76-4.047 8.76-8.92s-4.047-8.921-8.92-8.921z"></path>
</symbol>
<symbol id="icon-graph" viewBox="0 0 24 24">
<path d="M22.998 22.002h-1.998v-1.002h-1.002v1.002h-1.995v-1.002h-1.002v1.002h-1.998v-1.002h-1.002v1.002h-1.998v-1.002h-1.002v1.002h-1.998v-1.002h-1.002v1.002h-4.401l5.27-3.167 2.608-7.622 3.874 6.809 7.507-12.508-1.714-1.030-5.747 9.576-4.376-7.691-3.809 11.128-5.215 3.134v-20.631h-1.998v24h24v-3h-1.002zM22.998 0h1.002v1.002h-1.002zM19.998 0h1.002v1.002h-1.002zM17.001 0h1.002v1.002h-1.002zM14.001 0h1.002v1.002h-1.002zM11.001 0h1.002v1.002h-1.002zM8.001 0h1.002v1.002h-1.002zM5.001 0h1.002v1.002h-1.002zM2.001 0h1.002v1.002h-1.002zM22.998 3h1.002v1.002h-1.002zM19.998 3h1.002v1.002h-1.002zM17.001 3h1.002v1.002h-1.002zM14.001 3h1.002v1.002h-1.002zM11.001 3h1.002v1.002h-1.002zM8.001 3h1.002v1.002h-1.002zM5.001 3h1.002v1.002h-1.002zM2.001 3h1.002v1.002h-1.002zM22.998 5.997h1.002v1.002h-1.002zM17.001 5.997h1.002v1.002h-1.002zM14.001 5.997h1.002v1.002h-1.002zM8.001 5.997h1.002v1.002h-1.002zM5.001 5.997h1.002v1.002h-1.002zM2.001 5.997h1.002v1.002h-1.002zM22.998 8.997h1.002v1.002h-1.002zM14.001 8.997h1.002v1.002h-1.002zM8.001 8.997h1.002v1.002h-1.002zM5.001 8.997h1.002v1.002h-1.002zM2.001 8.997h1.002v1.002h-1.002zM22.998 11.999h1.002v1.002h-1.002zM19.998 11.999h1.002v1.002h-1.002zM5.001 11.999h1.002v1.002h-1.002zM2.001 11.999h1.002v1.002h-1.002zM22.998 14.999h1.002v1.002h-1.002zM19.998 14.999h1.002v1.002h-1.002zM11.001 14.999h1.002v1.002h-1.002zM5.001 14.999h1.002v1.002h-1.002zM2.001 14.999h1.002v1.002h-1.002zM22.998 17.996h1.002v1.002h-1.002zM19.998 17.996h1.002v1.002h-1.002zM17.001 17.996h1.002v1.002h-1.002zM11.001 17.996h1.002v1.002h-1.002zM2.001 17.996h1.002v1.002h-1.002z"></path>
</symbol>
<symbol id="icon-bars" viewBox="0 0 24 24">
<path d="M23 22v-1h-1v1h-1v-10h-5v10h-1v-20h-5v20h-1v-12h-1v-1h-1v1h-2v-1h-1v13h-2v-22h-2v24h24v-2h-1zM7 22h-1v-10h1v10zM13 22h-1v-18h1v18zM19 22h-1v-8h1v8zM4 0h1v1h-1zM7 0h1v1h-1zM10 0h1v1h-1zM13 0h1v1h-1zM16 0h1v1h-1zM19 0h1v1h-1zM22 0h1v1h-1zM22 3h1v1h-1zM19 3h1v1h-1zM16 3h1v1h-1zM16 6h1v1h-1zM19 6h1v1h-1zM22 6h1v1h-1zM22 9.002h1v1h-1zM19 9h1v1h-1zM16 9h1v1h-1zM22 12h1v1h-1zM22 15h1v1h-1zM22 18h1v1h-1zM7 3h1v1h-1zM7 6h1v1h-1zM4 6h1v1h-1zM4 3h1v1h-1z"></path>
</symbol>
<symbol id="icon-alt_route" viewBox="0 0 24 24">
<path d="M9.797 11.156l-1.453 1.406q-0.516-0.516-0.984-1.219t-0.797-1.688l1.969-0.516q0.234 0.656 0.563 1.148t0.703 0.867zM11.016 6l-4.031-3.984-3.984 3.984h3q0.047 1.266 0.188 2.156l1.969-0.469q-0.047-0.375-0.094-0.797t-0.047-0.891h3zM21 6l-3.984-3.984-4.031 3.984h3q-0.047 1.828-0.422 2.906t-0.938 1.734-1.172 1.219q-0.375 0.328-0.75 0.703t-0.703 0.891q-0.234-0.375-0.539-0.68l-0.586-0.586-1.406 1.406q0.469 0.422 0.82 0.844t0.539 1.031 0.188 1.547v0 0 0 4.969h1.969v-4.969q0-1.031 0.234-1.641t0.633-1.055 0.961-0.961q0.516-0.469 1.055-1.031t1.008-1.383 0.773-2.016 0.352-2.93h3z"></path>
</symbol>
<symbol id="icon-th-list" viewBox="0 0 28 28">
<path d="M8 19.5v3c0 0.828-0.672 1.5-1.5 1.5h-5c-0.828 0-1.5-0.672-1.5-1.5v-3c0-0.828 0.672-1.5 1.5-1.5h5c0.828 0 1.5 0.672 1.5 1.5zM8 11.5v3c0 0.828-0.672 1.5-1.5 1.5h-5c-0.828 0-1.5-0.672-1.5-1.5v-3c0-0.828 0.672-1.5 1.5-1.5h5c0.828 0 1.5 0.672 1.5 1.5zM28 19.5v3c0 0.828-0.672 1.5-1.5 1.5h-15c-0.828 0-1.5-0.672-1.5-1.5v-3c0-0.828 0.672-1.5 1.5-1.5h15c0.828 0 1.5 0.672 1.5 1.5zM8 3.5v3c0 0.828-0.672 1.5-1.5 1.5h-5c-0.828 0-1.5-0.672-1.5-1.5v-3c0-0.828 0.672-1.5 1.5-1.5h5c0.828 0 1.5 0.672 1.5 1.5zM28 11.5v3c0 0.828-0.672 1.5-1.5 1.5h-15c-0.828 0-1.5-0.672-1.5-1.5v-3c0-0.828 0.672-1.5 1.5-1.5h15c0.828 0 1.5 0.672 1.5 1.5zM28 3.5v3c0 0.828-0.672 1.5-1.5 1.5h-15c-0.828 0-1.5-0.672-1.5-1.5v-3c0-0.828 0.672-1.5 1.5-1.5h15c0.828 0 1.5 0.672 1.5 1.5z"></path>
</symbol>
<symbol id="icon-list" viewBox="0 0 28 28">
<path d="M4 20.5v3c0 0.266-0.234 0.5-0.5 0.5h-3c-0.266 0-0.5-0.234-0.5-0.5v-3c0-0.266 0.234-0.5 0.5-0.5h3c0.266 0 0.5 0.234 0.5 0.5zM4 14.5v3c0 0.266-0.234 0.5-0.5 0.5h-3c-0.266 0-0.5-0.234-0.5-0.5v-3c0-0.266 0.234-0.5 0.5-0.5h3c0.266 0 0.5 0.234 0.5 0.5zM4 8.5v3c0 0.266-0.234 0.5-0.5 0.5h-3c-0.266 0-0.5-0.234-0.5-0.5v-3c0-0.266 0.234-0.5 0.5-0.5h3c0.266 0 0.5 0.234 0.5 0.5zM28 20.5v3c0 0.266-0.234 0.5-0.5 0.5h-21c-0.266 0-0.5-0.234-0.5-0.5v-3c0-0.266 0.234-0.5 0.5-0.5h21c0.266 0 0.5 0.234 0.5 0.5zM4 2.5v3c0 0.266-0.234 0.5-0.5 0.5h-3c-0.266 0-0.5-0.234-0.5-0.5v-3c0-0.266 0.234-0.5 0.5-0.5h3c0.266 0 0.5 0.234 0.5 0.5zM28 14.5v3c0 0.266-0.234 0.5-0.5 0.5h-21c-0.266 0-0.5-0.234-0.5-0.5v-3c0-0.266 0.234-0.5 0.5-0.5h21c0.266 0 0.5 0.234 0.5 0.5zM28 8.5v3c0 0.266-0.234 0.5-0.5 0.5h-21c-0.266 0-0.5-0.234-0.5-0.5v-3c0-0.266 0.234-0.5 0.5-0.5h21c0.266 0 0.5 0.234 0.5 0.5zM28 2.5v3c0 0.266-0.234 0.5-0.5 0.5h-21c-0.266 0-0.5-0.234-0.5-0.5v-3c0-0.266 0.234-0.5 0.5-0.5h21c0.266 0 0.5 0.234 0.5 0.5z"></path>
</symbol>
<symbol id="icon-play" viewBox="0 0 22 28">
<path d="M21.625 14.484l-20.75 11.531c-0.484 0.266-0.875 0.031-0.875-0.516v-23c0-0.547 0.391-0.781 0.875-0.516l20.75 11.531c0.484 0.266 0.484 0.703 0 0.969z"></path>
</symbol>
<symbol id="icon-pause" viewBox="0 0 24 28">
<path d="M24 3v22c0 0.547-0.453 1-1 1h-8c-0.547 0-1-0.453-1-1v-22c0-0.547 0.453-1 1-1h8c0.547 0 1 0.453 1 1zM10 3v22c0 0.547-0.453 1-1 1h-8c-0.547 0-1-0.453-1-1v-22c0-0.547 0.453-1 1-1h8c0.547 0 1 0.453 1 1z"></path>
</symbol>
<symbol id="icon-server" viewBox="0 0 28 28">
<path d="M2 22h16v-2h-16v2zM2 14h16v-2h-16v2zM26.5 21c0-0.828-0.672-1.5-1.5-1.5s-1.5 0.672-1.5 1.5 0.672 1.5 1.5 1.5 1.5-0.672 1.5-1.5zM2 6h16v-2h-16v2zM26.5 13c0-0.828-0.672-1.5-1.5-1.5s-1.5 0.672-1.5 1.5 0.672 1.5 1.5 1.5 1.5-0.672 1.5-1.5zM26.5 5c0-0.828-0.672-1.5-1.5-1.5s-1.5 0.672-1.5 1.5 0.672 1.5 1.5 1.5 1.5-0.672 1.5-1.5zM28 18v6h-28v-6h28zM28 10v6h-28v-6h28zM28 2v6h-28v-6h28z"></path>
</symbol>
</defs>
</svg>
