<svg aria-hidden="true" style="position: absolute; width: 0; height: 0; overflow: hidden;" version="1.1" xmlns="http://www.w3.org/2000/svg" xmlns:xlink="http://www.w3.org/1999/xlink">
<defs>
<symbol id="icon-mail-envelope-open" viewBox="0 0 32 32">
<path d="M20.638 20h-8.332l2.244 1.98 2.267 0.011-1.697 0.009h3.378l0.020-0.018-0.099 0.001 2.218-1.983zM21.757 19l3.243-2.9v-8.091c0-0.557-0.455-1.009-1-1.009h-15c-0.552 0-1 0.444-1 1.002v8.198l3.173 2.8h10.583zM13.091 6l3.409-3 3.409 3h4.093c1.107 0 1.997 0.895 1.997 2v3.36l3 2.64v14.006c0 1.1-0.897 1.994-2.004 1.994h-20.993c-1.114 0-2.004-0.893-2.004-1.994v-14.006l3-2.64v-3.36c0-1.112 0.894-2 1.997-2h4.093zM18.428 6l-1.928-1.7-1.928 1.7h3.856zM26 12.677v2.656l1.5-1.333-1.5-1.323zM7 15.333v-2.656l-1.5 1.323 1.5 1.333zM13.5 23l-7 6h20l-7-6h-6zM27.685 28.725v0 0c0.194-0.183 0.315-0.442 0.315-0.725v-13l-8 7.017 7.685 6.708zM5.315 28.725l7.685-6.708-8-7.017v13c0 0.283 0.121 0.542 0.315 0.725v0 0zM10 10v1h13v-1h-13zM10 13v1h13v-1h-13zM10 16v1h13v-1h-13z"></path>
</symbol>
<symbol id="icon-mail-envelope-open1" viewBox="0 0 32 32">
<path d="M11.293 19l-3.293-2.8v-8.198c0-0.558 0.448-1.002 1-1.002h15c0.545 0 1 0.449 1 1.002v8.198l-3.333 2.8h-10.374zM12.469 20l1.783 1.516h4.42l1.805-1.516h-8.007zM22.185 20.127l-2.185 1.873 5.923 5.077-0.808 0.808-5.996-5.139-5.223 0.023-0.021-0.018-5.99 5.135-0.808-0.808 5.923-5.077-2.185-1.873-3.815-3.227v-5.54l-3 2.64v14.006c0 1.101 0.89 1.994 2.004 1.994h20.993c1.107 0 2.004-0.895 2.004-1.994v-14.006l-3-2.64v5.54l-3.815 3.227zM19.909 6l-3.409-3-3.409 3h6.818zM10 10v1h13v-1h-13zM10 13v1h13v-1h-13zM10 16v1h13v-1h-13z"></path>
</symbol>
<symbol id="icon-key" viewBox="0 0 32 32">
<path d="M17.034 13.368l-12.716 12.736c-0.429 0.43-0.429 1.129-0.002 1.559l0.018 0.019c0.428 0.431 1.119 0.438 1.553 0.003l2.65-2.648 2.463 2.463 1.5-1.5-2.463-2.463 3.001-2.999 1.962 1.962 1.5-1.5-1.962-1.962 4.082-4.080c0.963 0.657 2.126 1.042 3.38 1.042 3.314 0 6-2.686 6-6s-2.686-6-6-6c-3.314 0-6 2.686-6 6 0 1.248 0.381 2.408 1.034 3.368zM13 22l-1.5 1.5 2.5 2.5-3 3-2.5-2.5-1.875 1.875c-0.841 0.841-2.204 0.845-3.042 0.007l0.035 0.035c-0.837-0.837-0.835-2.2 0.007-3.042l12.157-12.157c-0.5-0.963-0.782-2.058-0.782-3.218 0-3.866 3.134-7 7-7s7 3.134 7 7c0 3.866-3.134 7-7 7-1.16 0-2.255-0.282-3.218-0.782v0l-2.782 2.782 2 2-3 3-2-2zM22 14v0 0c-2.209 0-4-1.791-4-4s1.791-4 4-4c2.209 0 4 1.791 4 4s-1.791 4-4 4zM22 13c1.657 0 3-1.343 3-3s-1.343-3-3-3c-1.657 0-3 1.343-3 3s1.343 3 3 3v0 0z"></path>
</symbol>
<symbol id="icon-document-locked" viewBox="0 0 32 32">
<path d="M24 10h-4.994c-1.108 0-2.006-0.887-2.006-1.998v-6.002h-9.991c-1.109 0-2.009 0.898-2.009 2.007v22.985c0 1.109 0.891 2.007 1.997 2.007h10.003v-4.498c0-0.654 0.417-1.208 1-1.415v-0.584c0-2.479 2.015-4.503 4.5-4.503 0.526 0 1.031 0.091 1.5 0.257v-8.257zM18 7.997c0 0.554 0.451 1.003 0.991 1.003h5.009l-6-7v5.997zM19 22.505l-0.002 1.495c-0.551 0-0.998 0.438-0.998 1.003v4.994c0 0.554 0.446 1.003 0.998 1.003h7.005c0.551 0 0.998-0.438 0.998-1.003v-4.994c0-0.554-0.446-1.003-1-1.003v-1.495c0-1.936-1.571-3.505-3.5-3.505-1.933 0-3.5 1.568-3.5 3.505zM20 22.509c0-1.397 1.119-2.509 2.5-2.509 1.39 0 2.5 1.123 2.5 2.509v1.491h-5v-1.491z"></path>
</symbol>
<symbol id="icon-document-cancel" viewBox="0 0 32 32">
<path d="M21.5 26.207l-2.121 2.121-0.707-0.707 2.121-2.121-2.121-2.121 0.707-0.707 2.121 2.121 2.121-2.121 0.707 0.707-2.121 2.121 2.121 2.121-0.707 0.707-2.121-2.121zM16.022 29h-9.024c-1.107 0-1.997-0.899-1.997-2.007v-22.985c0-1.109 0.899-2.007 2.009-2.007h9.991v6.002c0 1.111 0.898 1.998 2.006 1.998h4.994v9.498c-0.77-0.321-1.614-0.498-2.5-0.498-3.59 0-6.5 2.91-6.5 6.5 0 1.289 0.375 2.49 1.022 3.5v0 0zM18 2v5.997c0 0.554 0.451 1.003 0.991 1.003h5.009l-6-7zM21.5 31c3.038 0 5.5-2.462 5.5-5.5s-2.462-5.5-5.5-5.5c-3.038 0-5.5 2.462-5.5 5.5s2.462 5.5 5.5 5.5v0z"></path>
</symbol>
<symbol id="icon-news" viewBox="0 0 32 32">
<path d="M29 0h-22c-1.657 0-3 1.342-3 3v2h-1c-1.657 0-3 1.342-3 3v20c0 2.209 1.791 4 4 4h24c2.209 0 4-1.791 4-4v-25c0-1.658-1.344-3-3-3zM30 28c0 1.102-0.898 2-2 2h-24c-1.103 0-2-0.898-2-2v-20c0-0.552 0.448-1 1-1h1v20c0 0.553 0.447 1 1 1s1-0.447 1-1v-24c0-0.552 0.448-1 1-1h22c0.551 0 1 0.448 1 1v25zM19.498 13.005c-0.275 0-0.5-0.224-0.5-0.5s0.225-0.5 0.5-0.5h8c0.277 0 0.5 0.224 0.5 0.5s-0.223 0.5-0.5 0.5h-8zM19.498 10.005c-0.275 0-0.5-0.224-0.5-0.5s0.225-0.5 0.5-0.5h8c0.277 0 0.5 0.224 0.5 0.5s-0.223 0.5-0.5 0.5h-8zM19.498 7.005c-0.275 0-0.5-0.224-0.5-0.5s0.225-0.5 0.5-0.5h8c0.277 0 0.5 0.224 0.5 0.5s-0.223 0.5-0.5 0.5h-8zM16.5 27.004c0.276 0 0.5 0.225 0.5 0.5 0 0.277-0.225 0.5-0.5 0.5h-8c-0.276 0-0.5-0.223-0.5-0.5 0-0.275 0.224-0.5 0.5-0.5h8zM16.5 24.004c0.276 0 0.5 0.225 0.5 0.5 0 0.277-0.225 0.5-0.5 0.5h-8c-0.276 0-0.5-0.223-0.5-0.5 0-0.275 0.224-0.5 0.5-0.5h8zM16.5 21.004c0.276 0 0.5 0.225 0.5 0.5 0 0.277-0.225 0.5-0.5 0.5h-8c-0.276 0-0.5-0.223-0.5-0.5 0-0.275 0.224-0.5 0.5-0.5h8zM27.5 27.004c0.275 0 0.5 0.225 0.5 0.5 0 0.277-0.225 0.5-0.5 0.5h-8c-0.277 0-0.5-0.223-0.5-0.5 0-0.275 0.223-0.5 0.5-0.5h8zM27.5 24.004c0.275 0 0.5 0.225 0.5 0.5 0 0.277-0.225 0.5-0.5 0.5h-8c-0.277 0-0.5-0.223-0.5-0.5 0-0.275 0.223-0.5 0.5-0.5h8zM27.5 21.004c0.275 0 0.5 0.225 0.5 0.5 0 0.277-0.225 0.5-0.5 0.5h-8c-0.277 0-0.5-0.223-0.5-0.5 0-0.275 0.223-0.5 0.5-0.5h8zM27.5 15.004c0.275 0 0.5 0.224 0.5 0.5s-0.225 0.5-0.5 0.5h-19c-0.276 0-0.5-0.224-0.5-0.5s0.224-0.5 0.5-0.5h19zM27.5 18.004c0.275 0 0.5 0.225 0.5 0.5 0 0.277-0.225 0.5-0.5 0.5h-19c-0.276 0-0.5-0.223-0.5-0.5 0-0.275 0.224-0.5 0.5-0.5h19zM9 13h7c0.553 0 1-0.447 1-1v-6.996c0-0.553-0.447-1-1-1h-7c-0.553 0-1 0.447-1 1v6.996c0 0.552 0.447 1 1 1zM10 6h5v5h-5v-5z"></path>
</symbol>
<symbol id="icon-calendar" viewBox="0 0 32 32">
<path d="M27 31h-22c-1.104 0-2-0.896-2-2v-22c0-1.105 0.896-2 2-2h2v1c0 1.657 1.343 3 3 3s3-1.343 3-3v-1h6v1c0 1.657 1.344 3 3 3s3-1.343 3-3v-1h2c1.104 0 2 0.895 2 2v22c0 1.104-0.896 2-2 2zM27 12h-22v17h22v-17zM10 17h-3v-3h3v3zM10 22h-3v-3h3v3zM10 27h-3v-3h3v3zM15 17h-3v-3h3v3zM15 22h-3v-3h3v3zM15 27h-3v-3h3v3zM20 17h-3v-3h3v3zM20 22h-3v-3h3v3zM20 27h-3v-3h3v3zM25 17h-3v-3h3v3zM25 22h-3v-3h3v3zM25 27h-3v-3h3v3zM21.969 8c-1.088 0-1.969-0.882-1.969-1.969v-2.062c0-1.088 0.881-1.969 1.969-1.969s1.969 0.881 1.969 1.969v2.062c0 1.087-0.881 1.969-1.969 1.969zM9.969 8c-1.088 0-1.969-0.882-1.969-1.969v-2.062c0-1.088 0.881-1.969 1.969-1.969s1.969 0.881 1.969 1.969v2.062c0 1.087-0.882 1.969-1.969 1.969z"></path>
</symbol>
<symbol id="icon-microwave" viewBox="0 0 36 32">
<path d="M35 28h-7.999v-23h7.999c0.553 0 1 0.447 1 1v21c0 0.552-0.447 1-1 1zM31.001 24h1v-1h-1v1zM31.001 22h1v-1h-1v1zM31.001 20h1v-1h-1v1zM29.001 24h0.999v-1h-0.999v1zM29.001 22h0.999v-1h-0.999v1zM29.001 20h0.999v-1h-0.999v1zM34.001 9h-5v3h5v-3zM34.001 19h-1v1h1v-1zM34.001 21h-1v1h1v-1zM34.001 23h-1v1h1v-1zM0 27v-21c0-0.553 0.448-1 1.001-1h25v23h-25c-0.553 0-1.001-0.448-1.001-1zM24.039 17.509c0.553 0 1-0.448 1-1 0-0.553-0.447-1-1-1-0.552 0-1 0.447-1 1 0 0.552 0.448 1 1 1zM4 23c0 0.552 0.448 1 1.001 1h15.999c0.553 0 1-0.448 1-1v-13c0-0.553-0.447-1-1-1h-15.999c-0.553 0-1.001 0.447-1.001 1v13z"></path>
</symbol>
<symbol id="icon-locked" viewBox="0 0 32 32">
<path d="M4 31v-16h3v-5c0-4.418 3.581-8 8-8h1c4.418 0 8 3.582 8 8v5h3v16h-23zM14.744 22.787l-0.744 5.213h3l-0.745-5.213c0.729-0.298 1.245-1.013 1.245-1.85 0-1.104-0.896-2-2-2-1.105 0-2 0.896-2 2 0 0.837 0.515 1.552 1.244 1.85zM21 10.5c0-3.038-2.463-5.5-5.5-5.5-3.038 0-5.5 2.462-5.5 5.5v4.5h11v-4.5z"></path>
</symbol>
<symbol id="icon-unlocked" viewBox="0 0 32 32">
<path d="M29 15v-4.5c0-3.038-2.463-5.5-5.5-5.5-3.038 0-5.5 2.462-5.5 5.5v4.571h5v15.929h-23v-16h15v-5c0-4.418 3.581-8 8-8h1c4.418 0 8 3.582 8 8v5h-3zM11.5 18.938c-1.105 0-2 0.896-2 2 0 0.837 0.515 1.552 1.244 1.85l-0.744 5.212h3l-0.745-5.213c0.729-0.298 1.245-1.013 1.245-1.85 0-1.104-0.896-1.999-2-1.999z"></path>
</symbol>
<symbol id="icon-locked1" viewBox="0 0 32 32">
<path d="M16 31c-5.247 0-9.5-4.254-9.5-9.5 0-3.41 1.802-6.391 4.5-8.067v-5.933c0-3.038 2.463-5.5 5.5-5.5s5.5 2.462 5.5 5.5v6.637c2.135 1.742 3.5 4.392 3.5 7.363 0 5.246-4.253 9.5-9.5 9.5zM20 7.5c0-1.933-1.566-3.5-3.5-3.5-1.933 0-3.5 1.567-3.5 3.5v4.991c0.944-0.314 1.95-0.491 3-0.491 1.432 0 2.783 0.325 4 0.892v-5.392zM16 13.5c-4.418 0-8 3.582-8 8s3.582 8 8 8 8-3.582 8-8-3.582-8-8-8zM16 29c-4.143 0-7.5-3.357-7.5-7.5s3.357-7.5 7.5-7.5c4.143 0 7.5 3.357 7.5 7.5s-3.357 7.5-7.5 7.5zM17.5 19.5c0-0.828-0.672-1.5-1.5-1.5s-1.5 0.672-1.5 1.5c0 0.711 0.504 1.277 1.167 1.434l-1.167 4.566h3.062l-1.314-4.551c0.705-0.121 1.252-0.709 1.252-1.449z"></path>
</symbol>
<symbol id="icon-unlocked1" viewBox="0 0 32 32">
<path d="M28 14v-6.5c0-1.933-1.567-3.5-3.5-3.5s-3.5 1.567-3.5 3.5v5.933c2.697 1.676 4.5 4.657 4.5 8.067 0 5.247-4.253 9.5-9.5 9.5s-9.5-4.253-9.5-9.499c0-5.247 4.253-9.5 9.5-9.5 1.050 0 2.056 0.177 3 0.491v-4.992c0-3.037 2.463-5.5 5.5-5.5s5.5 2.463 5.5 5.5v6.5h-2zM16 13.5c-4.418 0-8 3.582-8 8s3.582 7.999 8 7.999 8-3.581 8-7.999c0-4.418-3.582-8-8-8zM16 29c-4.143 0-7.5-3.357-7.5-7.499 0-4.144 3.357-7.501 7.5-7.501s7.5 3.357 7.5 7.501c0 4.142-3.357 7.499-7.5 7.499zM17.5 19.501c0-0.829-0.672-1.5-1.5-1.5s-1.5 0.671-1.5 1.5c0 0.709 0.504 1.277 1.167 1.432l-1.167 4.567h3.062l-1.314-4.55c0.705-0.123 1.252-0.709 1.252-1.449z"></path>
</symbol>
<symbol id="icon-profile" viewBox="0 0 32 32">
<path d="M23 11.031c0-0.553-0.448-1-1-1h-3c0 0 0.033-1.204 0.033-2.954 0-1.625-1.346-3.108-3.033-3.108s-2.988 1.411-2.988 3.099c0 1.625-0.012 2.964-0.012 2.964h-3c-0.553 0-1 0.447-1 1 0 0.552 0 1.938 0 1.938h14c0-0.001 0-1.387 0-1.939zM16 8.969c-0.553 0-1-0.448-1-1 0-0.553 0.447-1 1-1 0.552 0 1 0.447 1 1s-0.448 1-1 1zM28 11.031l-4-0.062 0.021 3.104h-16.021v-2.979l-4-0.062c-1.104 0-2 0.896-2 2v14c0 1.104 0.896 2 2 2h24c1.104 0 2-0.896 2-2v-14c0-1.105-0.896-2.001-2-2.001zM10 16.844c1.208 0 2.188 1.287 2.188 2.875s-0.98 2.875-2.188 2.875-2.188-1.287-2.188-2.875 0.98-2.875 2.188-2.875zM5.667 25.979c0 0 0.237-1.902 0.776-2.261s2.090-0.598 2.090-0.598 1.006 1.075 1.434 1.075c0.427 0 1.433-1.075 1.433-1.075s1.552 0.238 2.091 0.598c0.633 0.422 0.791 2.261 0.791 2.261h-8.615zM26 25.031h-9v-1h9v1zM26 23.031h-9v-1h9v1zM26 21.031h-9v-1h9v1zM26 19.031h-9v-1h9v1z"></path>
</symbol>
<symbol id="icon-car" viewBox="0 0 32 32">
<path d="M27 22h-23c-1.104 0-2-0.896-2-2v-5c0-1.104 0.896-2 2-2h1c0 0 1.479-4.5 1.916-6s0.896-2 2.001-2h13.166c1.104 0 1.438 0.312 2 2s1.917 6 1.917 6h1c1.104 0 2 0.896 2 2v5c0 1.104-0.896 2-2 2zM9 20h13v-1h-13v1zM22 13c0-1.104-0.896-2.125-2-2.125s-2 1.021-2 2.125c0 0.026 4 0.026 4 0zM9 18h13v-1h-13v1zM9 16h13v-1h-13v1zM4.062 17c0 1.104 0.896 2 2 2s2-0.896 2-2-0.896-2-2-2-2 0.896-2 2zM23.083 7c-0.25-0.688-0.447-1-1-1h-6.083v1h0.5c0.276 0 0.5 0.224 0.5 0.5s-0.224 0.5-0.5 0.5h-2c-0.276 0-0.5-0.224-0.5-0.5s0.224-0.5 0.5-0.5h0.5v-1h-6.083c-0.553 0-0.751 0.125-1 1-0.251 0.875-1.917 6-1.917 6h11.46c0.023-1.364 1.13-2.643 2.495-2.643s2.472 1.278 2.496 2.643h2.549c0 0-1.667-5.312-1.917-6zM24.938 15.062c-1.104 0-2 0.896-2 2s0.896 2 2 2 2-0.896 2-2-0.896-2-2-2zM7 25.5c0 0.828-0.672 1.5-1.5 1.5s-1.5-0.672-1.5-1.5v-2.5h3v2.5zM27 25.5c0 0.828-0.672 1.5-1.5 1.5s-1.5-0.672-1.5-1.5v-2.5h3v2.5z"></path>
</symbol>
<symbol id="icon-truck" viewBox="0 0 32 32">
<path d="M26.969 13c-0.553 0-1 0-1 0h-1.979l-0.013 1.256c0.598 0.341 0.992 0.989 0.992 1.744l0.042 6.938h-18.98v-6.938c0-0.738 0.404-1.376 1-1.723v-1.277h-2c0 0-0.448 0-1 0-0.553 0-1-0.448-1-1v-1c0-0.553 0.447-1 1-1 0.552 0 1 0 1 0v2h2v-3c0-1.104 0.896-2 2-2h13c1.104 0 2 0.896 2 2l-0.031 3h1.969v-2c0 0 0.447 0 1 0 0.552 0 1 0.447 1 1v1c0 0.552-0.448 1-1 1zM12.031 22h7v-1h-7v1zM12.031 20h7v-1h-7v1zM12.031 18h7v-1h-7v1zM8.031 21c0 0.552 0.447 1 1 1h1c0.552 0 1-0.448 1-1 0-0.553-0.448-1-1-1h-1c-0.552 0-1 0.447-1 1zM22.031 10c0-0.553-0.447-1-1-1h-11c-0.553 0-1 0.447-1 1v5h13v-5zM22.031 20h-1c-0.553 0-1 0.447-1 1 0 0.552 0.447 1 1 1h1c0.552 0 1-0.448 1-1 0-0.553-0.448-1-1-1zM23.031 6h-15c-1.104 0-2 0.896-2 2v-5c0-0.553 0.447-1 1-1h17c0.552 0 1 0.447 1 1v5c0-1.104-0.895-2-2-2zM25.031 24.938c0 0.552-0.448 1-1 1h-17c-0.553 0-1-0.448-1-1 0-0.553 0-1 0-1h19c0 0 0 0.447 0 1zM11.031 29c0 0.552-0.448 1-1 1h-1c-0.553 0-1-0.448-1-1v-2h3v2zM23.031 29c0 0.552-0.448 1-1 1h-1c-0.553 0-1-0.448-1-1v-2h3v2z"></path>
</symbol>
<symbol id="icon-clipboard" viewBox="0 0 32 32">
<path d="M24 32.041h-18c-1.105 0-2-0.893-2-1.996v-24.097c0-1.102 0.895-1.995 2-1.995h5v2.079h-4c-0.552 0-1 0.446-1 0.998v22.017c0 0.553 0.448 0.998 1 0.998h16c0.553 0 1-0.445 1-0.998v-22.017c0-0.552-0.447-0.998-1-0.998h-4v-2.079h5c1.104 0 2 0.894 2 1.995v24.097c0 1.103-0.896 1.996-2 1.996zM11 12.019h11v0.998h-11v-0.998zM11 15.013h11v0.998h-11v-0.998zM11 18.008h11v0.998h-11v-0.998zM11 21.002h11v0.998h-11v-0.998zM22 27.986h-11v-0.996h11v0.996zM11 23.996h11v0.998h-11v-0.998zM8 11.999h1v0.998h-1v-0.998zM8 14.993h1v0.998h-1v-0.998zM8 17.986h1v0.998h-1v-0.998zM8 20.98h1v0.998h-1v-0.998zM9 27.967h-1v-0.998h1v0.998zM8 23.975h1v0.998h-1v-0.998zM21 7.091c0.553 0 1 0.447 1 0.999s0 1.933 0 1.933h-14c0 0 0-1.382 0-1.933s0.447-0.999 1-0.999h3c0 0 0.012-1.419 0.012-3.041 0-1.684 1.3-3.092 2.988-3.092s3.033 1.48 3.033 3.102c0 1.747-0.033 3.031-0.033 3.031h3zM15 3.953c-0.553 0-1 0.446-1 0.997 0 0.552 0.447 0.998 1 0.998s1-0.446 1-0.998c0-0.551-0.447-0.997-1-0.997z"></path>
</symbol>
<symbol id="icon-clipboard1" viewBox="0 0 32 32">
<path d="M7.903 7.023c0 0.55 0 1.993 0 1.993h14.014c0 0 0-1.443 0-1.993s-0.445-0.997-0.996-0.997h-2.99c0 0 0.034-1.138 0.034-2.882 0-1.619-1.404-3.098-3.086-3.098s-2.978 1.406-2.978 3.089c0 1.619-0.012 2.891-0.012 2.891h-2.989c-0.551 0-0.997 0.446-0.997 0.997zM14.879 3.037c0.55 0 0.997 0.446 0.997 0.996 0 0.551-0.447 0.997-0.997 0.997s-0.997-0.446-0.997-0.997c0-0.55 0.447-0.996 0.997-0.996zM23.911 6.026v9.901c0 0 0.86-0.949 1.992-1.404v-9.493c0-1.101-0.955-1.993-2.055-1.993h-4.921v1.993h3.986c0.551 0 0.998 0.446 0.998 0.996zM12.823 30.006h-5.917c-0.55 0-0.996-0.445-0.996-0.996v-22.984c0-0.55 0.446-0.996 0.996-0.996h4.049v-1.993h-5.045c-1.101 0-1.993 0.893-1.993 1.993v24.976c0 1.101 0.892 1.994 1.993 1.994h9.081c-0.39-0.658-1.087-1.418-2.168-1.994zM23.911 29.010c0 0.551-0.447 0.996-0.997 0.996h-2.729c-0.502 0.672-0.975 1.34-1.41 1.994h5.074c1.1 0 2.055-0.893 2.055-1.994v-6.129c-0.66 0.543-1.328 1.156-1.992 1.83v3.303zM28.083 20.926c-1.123-2.496-0.48-4.523-0.32-6.863-6.579 3.275-10.751 13.103-10.751 13.103l-2.567-4.836-5.295 3.119c2.247 0.779 5.456 3.275 8.184 6.551 1.924-3.432 7.861-10.449 10.749-11.074z"></path>
</symbol>
<symbol id="icon-clipboard2" viewBox="0 0 32 32">
<path d="M26 32h-20c-1.105 0-2-0.894-2-1.996v-25.014c0-1.103 0.895-1.996 2-1.996h6v1.996h-5c-0.552 0-1 0.446-1 0.998v23.018c0 0.551 0.448 0.998 1 0.998h18c0.553 0 1-0.447 1-0.998v-23.018c0-0.552-0.447-0.998-1-0.998h-5v-1.996h6c1.104 0 2 0.894 2 1.996v25.014c0 1.102-0.896 1.996-2 1.996zM25 5.988v23.018h-18v-23.018h1v4.055h16v-4.055h1zM11 13.037h-1v0.998h1v-0.998zM11 15.033h-1v0.998h1v-0.998zM11 17.029h-1v0.998h1v-0.998zM11 19.025h-1v0.998h1v-0.998zM11 21.021h-1v0.998h1v-0.998zM11 23.018h-1v0.998h1v-0.998zM11 25.014h-1v0.998h1v-0.998zM22 13.037h-10v0.998h10v-0.998zM22 15.033h-10v0.998h10v-0.998zM22 17.029h-10v0.998h10v-0.998zM22 19.025h-10v0.998h10v-0.998zM22 21.021h-10v0.998h10v-0.998zM22 23.018h-10v0.998h10v-0.998zM22 25.014h-10v0.998h10v-0.998zM22 5.988c0.553 0 1 0.446 1 0.998 0 0.551 0 1.996 0 1.996h-14c0 0 0-1.445 0-1.996s0.447-0.998 1-0.998h3c0 0 0.012-1.274 0.012-2.896 0-1.684 1.3-3.092 2.988-3.092s3.033 1.48 3.033 3.103c0 1.746-0.033 2.885-0.033 2.885h3zM16 2.994c-0.553 0-1 0.446-1 0.998s0.447 0.998 1 0.998 1-0.447 1-0.998c0-0.552-0.447-0.998-1-0.998z"></path>
</symbol>
<symbol id="icon-mobile" viewBox="0 0 32 32">
<path d="M1.5 32h14c0.276 0 0.5-0.224 0.5-0.5s-0.224-0.5-0.5-0.5h-14c-0.276 0-0.5-0.224-0.5-0.5v-29c0-0.276 0.224-0.5 0.5-0.5h21c0.276 0 0.5 0.224 0.5 0.5v5c0 0.276 0.224 0.5 0.5 0.5s0.5-0.224 0.5-0.5v-5c0-0.827-0.673-1.5-1.5-1.5h-21c-0.827 0-1.5 0.673-1.5 1.5v29c0 0.827 0.673 1.5 1.5 1.5zM18 10.5v20c0 0.827 0.673 1.5 1.5 1.5h11c0.827 0 1.5-0.673 1.5-1.5v-20c0-0.827-0.673-1.5-1.5-1.5h-11c-0.827 0-1.5 0.673-1.5 1.5zM31 10.5v20c0 0.276-0.224 0.5-0.5 0.5h-11c-0.276 0-0.5-0.224-0.5-0.5v-20c0-0.276 0.224-0.5 0.5-0.5h11c0.276 0 0.5 0.224 0.5 0.5zM11 28c0 0.552 0.448 1 1 1s1-0.448 1-1c0-0.552-0.448-1-1-1s-1 0.448-1 1zM24 28c0 0.552 0.448 1 1 1s1-0.448 1-1c0-0.552-0.448-1-1-1s-1 0.448-1 1z"></path>
</symbol>
<symbol id="icon-lock" viewBox="0 0 28 32">
<path d="M14 0c-5.514 0-10 4.486-10 10v3h-1.5c-1.378 0-2.5 1.122-2.5 2.5v14c0 1.378 1.122 2.5 2.5 2.5h23c1.378 0 2.5-1.122 2.5-2.5v-14c0-1.378-1.122-2.5-2.5-2.5h-1.5v-3c0-5.514-4.486-10-10-10zM5 10c0-4.962 4.038-9 9-9s9 4.038 9 9v3h-3v-3c0-3.309-2.691-6-6-6s-6 2.691-6 6v3h-3v-3zM19 13h-10v-3c0-2.757 2.243-5 5-5s5 2.243 5 5v3zM12.293 21l-5 5h-4.586l5-5h4.586zM18.293 21l-5 5h-4.586l5-5h4.586zM24.293 21l-5 5h-4.586l5-5h4.586zM27 21v5h-6.293l5-5h1.293zM1.293 26h-0.293v-5h5.293l-5 5zM25.5 31h-23c-0.827 0-1.5-0.673-1.5-1.5v-2.5h26v2.5c0 0.827-0.673 1.5-1.5 1.5zM27 15.5v4.5h-26v-4.5c0-0.827 0.673-1.5 1.5-1.5h23c0.827 0 1.5 0.673 1.5 1.5z"></path>
</symbol>
<symbol id="icon-map" viewBox="0 0 41 32">
<path d="M9.239 31.927c0.009 0.006 0.021 0.003 0.030 0.009 0.073 0.037 0.149 0.064 0.231 0.064 0.044 0 0.088-0.006 0.132-0.018l10.868-2.966 10.868 2.966c0.044 0.012 0.088 0.018 0.132 0.018 0.082 0 0.158-0.027 0.23-0.065 0.010-0.005 0.021-0.003 0.030-0.009l9-5.5c0.191-0.117 0.281-0.348 0.22-0.563l-4.984-17.5c-0.041-0.147-0.148-0.267-0.29-0.326-0.142-0.057-0.301-0.048-0.436 0.026l-4.962 2.784c-0.24 0.135-0.326 0.44-0.191 0.681s0.439 0.327 0.682 0.191l4.409-2.475 4.707 16.526-8.015 4.899-1.904-15.231c-0.034-0.275-0.293-0.466-0.559-0.434-0.273 0.034-0.468 0.284-0.434 0.558l1.907 15.259-9.91-2.705v-2.73c0-0.276-0.224-0.5-0.5-0.5s-0.5 0.224-0.5 0.5v2.73l-9.911 2.705 1.907-15.259c0.034-0.274-0.16-0.524-0.434-0.558-0.272-0.032-0.524 0.159-0.559 0.434l-1.903 15.231-8.015-4.898 4.707-16.525 4.409 2.475c0.242 0.134 0.546 0.049 0.682-0.191 0.135-0.241 0.049-0.545-0.191-0.681l-4.963-2.785c-0.133-0.075-0.292-0.085-0.435-0.026s-0.249 0.178-0.29 0.326l-4.984 17.5c-0.062 0.216 0.028 0.446 0.22 0.563l8.999 5.5zM20.161 23.368c0.096 0.088 0.217 0.132 0.339 0.132 0.12 0 0.24-0.043 0.336-0.129 0.333-0.303 8.164-7.489 8.164-14.871 0-4.767-3.733-8.5-8.5-8.5s-8.5 3.733-8.5 8.5c0 7.254 7.828 14.56 8.161 14.868zM20.5 1c4.275 0 7.5 3.224 7.5 7.5 0 6.097-5.993 12.337-7.497 13.807-1.501-1.487-7.503-7.809-7.503-13.807 0-4.276 3.225-7.5 7.5-7.5zM25 8.5c0-2.481-2.019-4.5-4.5-4.5s-4.5 2.019-4.5 4.5 2.019 4.5 4.5 4.5 4.5-2.019 4.5-4.5zM20.5 12c-1.93 0-3.5-1.57-3.5-3.5s1.57-3.5 3.5-3.5 3.5 1.57 3.5 3.5-1.57 3.5-3.5 3.5z"></path>
</symbol>
<symbol id="icon-gears" viewBox="0 0 42 32">
<path d="M3.692 21.72c0.176 0.042 0.415 0.259 0.484 0.457l0.35 0.844c0.079 0.162 0.064 0.483-0.030 0.637l-1.397 2.284c-0.299 0.49-0.237 1.184 0.165 1.634l1.183 1.182c0.412 0.366 1.139 0.432 1.613 0.145l2.284-1.397c0.143-0.088 0.45-0.119 0.665-0.018l0.843 0.348c0.17 0.059 0.387 0.297 0.429 0.473l0.627 2.604c0.133 0.552 0.66 1.006 1.226 1.058 0 0 0.347 0.032 0.867 0.032s0.867-0.032 0.868-0.032c0.565-0.051 1.092-0.506 1.225-1.058l0.628-2.604c0.042-0.175 0.258-0.414 0.456-0.483l0.844-0.35c0.149-0.073 0.494-0.058 0.637 0.030l2.284 1.397c0.201 0.123 0.441 0.188 0.696 0.188 0.345 0 0.679-0.121 0.938-0.352l1.182-1.183c0.382-0.429 0.444-1.123 0.145-1.613l-1.397-2.284c-0.094-0.154-0.109-0.475-0.018-0.665l0.348-0.843c0.059-0.17 0.297-0.387 0.473-0.429l2.604-0.627c0.552-0.133 1.006-0.66 1.058-1.226 0 0 0.032-0.347 0.032-0.867s-0.032-0.867-0.032-0.868c-0.051-0.565-0.506-1.092-1.058-1.226l-2.603-0.626c-0.176-0.042-0.415-0.259-0.484-0.457l-0.35-0.844c-0.079-0.162-0.064-0.483 0.030-0.637l1.397-2.284c0.299-0.49 0.237-1.184-0.165-1.634l-1.183-1.182c-0.413-0.367-1.141-0.433-1.613-0.145l-2.284 1.397c-0.143 0.087-0.451 0.12-0.665 0.018l-0.843-0.348c-0.17-0.059-0.386-0.297-0.428-0.473l-0.628-2.604c-0.133-0.552-0.66-1.006-1.226-1.058-0.002 0.001-0.349-0.031-0.869-0.031s-0.867 0.032-0.868 0.032c-0.565 0.051-1.092 0.506-1.226 1.058l-0.626 2.602c-0.042 0.176-0.259 0.415-0.457 0.484l-0.844 0.35c-0.15 0.073-0.494 0.057-0.637-0.030l-2.283-1.397c-0.473-0.288-1.185-0.238-1.634 0.164l-1.182 1.183c-0.382 0.429-0.444 1.123-0.145 1.613l1.397 2.284c0.094 0.154 0.109 0.475 0.018 0.665l-0.348 0.843c-0.059 0.17-0.297 0.387-0.473 0.429l-2.604 0.627c-0.552 0.133-1.006 0.66-1.058 1.226 0.002 0-0.030 0.347-0.030 0.867s0.032 0.867 0.032 0.868c0.051 0.565 0.506 1.092 1.058 1.226l2.602 0.626zM1 19c0-0.458 0.027-0.767 0.028-0.777 0.012-0.135 0.165-0.312 0.296-0.344l2.604-0.627c0.505-0.122 1.014-0.584 1.172-1.047l0.324-0.787c0.228-0.467 0.196-1.153-0.075-1.597l-1.397-2.283c-0.067-0.111-0.048-0.331 0.018-0.406l1.141-1.142c0.091-0.081 0.323-0.101 0.427-0.038l2.284 1.397c0.433 0.265 1.175 0.283 1.568 0.088l0.788-0.326c0.491-0.169 0.953-0.678 1.075-1.184l0.626-2.603c0.032-0.132 0.209-0.285 0.344-0.297 0.010 0 0.319-0.027 0.777-0.027s0.767 0.027 0.777 0.028c0.135 0.012 0.312 0.165 0.344 0.296l0.627 2.603c0.122 0.505 0.583 1.015 1.047 1.173l0.787 0.324c0.457 0.224 1.165 0.189 1.597-0.075l2.283-1.397c0.104-0.063 0.35-0.030 0.406 0.018l1.142 1.141c0.086 0.097 0.105 0.316 0.038 0.427l-1.397 2.284c-0.271 0.443-0.303 1.13-0.088 1.568l0.326 0.788c0.169 0.491 0.678 0.953 1.184 1.075l2.603 0.626c0.132 0.032 0.285 0.209 0.297 0.344 0 0.010 0.027 0.319 0.027 0.777s-0.027 0.767-0.028 0.777c-0.012 0.135-0.165 0.312-0.296 0.344l-2.604 0.627c-0.505 0.122-1.014 0.584-1.172 1.047l-0.324 0.787c-0.228 0.467-0.196 1.153 0.075 1.597l1.397 2.283c0.067 0.111 0.048 0.331-0.018 0.406l-1.141 1.142c-0.054 0.048-0.152 0.079-0.251 0.079-0.069 0-0.133-0.015-0.175-0.041l-2.284-1.397c-0.432-0.264-1.174-0.283-1.568-0.088l-0.788 0.326c-0.491 0.169-0.953 0.679-1.074 1.184l-0.627 2.603c-0.032 0.132-0.209 0.285-0.344 0.297-0.011 0-0.32 0.027-0.778 0.027s-0.767-0.027-0.777-0.028c-0.135-0.012-0.312-0.165-0.344-0.296l-0.627-2.604c-0.122-0.505-0.584-1.014-1.047-1.172l-0.787-0.324c-0.204-0.1-0.451-0.152-0.715-0.152-0.329 0-0.642 0.081-0.882 0.228l-2.283 1.397c-0.104 0.063-0.351 0.029-0.406-0.018l-1.142-1.142c-0.086-0.097-0.105-0.316-0.038-0.427l1.397-2.284c0.271-0.443 0.303-1.13 0.088-1.568l-0.326-0.788c-0.169-0.491-0.678-0.953-1.184-1.075l-2.603-0.626c-0.132-0.032-0.285-0.209-0.297-0.344 0-0.010-0.027-0.319-0.027-0.777zM13 24.5c3.033 0 5.5-2.467 5.5-5.5s-2.467-5.5-5.5-5.5-5.5 2.467-5.5 5.5 2.467 5.5 5.5 5.5zM13 14.5c2.481 0 4.5 2.019 4.5 4.5s-2.019 4.5-4.5 4.5-4.5-2.019-4.5-4.5 2.019-4.5 4.5-4.5zM27.477 5.314c-0.040 0.061-0.185 0.138-0.259 0.138l-1.861-0.018c-0.452 0-0.905 0.321-1.053 0.746 0 0-0.082 0.233-0.172 0.59s-0.128 0.601-0.128 0.601c-0.070 0.451 0.181 0.95 0.584 1.161l1.641 0.86c0.063 0.033 0.156 0.172 0.166 0.273l0.093 0.635c0.015 0.070-0.033 0.23-0.084 0.28l-1.322 1.296c-0.331 0.324-0.418 0.878-0.19 1.313l0.599 1c0.253 0.372 0.801 0.562 1.231 0.428l1.824-0.558c0.099 0 0.198 0.038 0.254 0.083l0.515 0.38c0.060 0.040 0.139 0.187 0.138 0.259l-0.018 1.852c-0.004 0.456 0.316 0.913 0.746 1.063 0 0 0.233 0.082 0.59 0.172s0.601 0.128 0.601 0.128c0.026 0.004 0.13 0.012 0.156 0.012 0.408 0 0.822-0.245 1.005-0.596l0.86-1.641c0.033-0.063 0.172-0.156 0.273-0.166l0.663-0.096c0.1 0 0.218 0.052 0.251 0.086l1.296 1.322c0.315 0.322 0.846 0.437 1.313 0.19l0.999-0.599c0.382-0.26 0.567-0.79 0.429-1.231l-0.552-1.767c-0.021-0.068 0.012-0.232 0.078-0.311l0.38-0.515c0.040-0.061 0.185-0.138 0.259-0.138l1.861 0.018c0.452 0 0.905-0.321 1.053-0.746 0 0 0.082-0.233 0.172-0.59s0.128-0.601 0.128-0.601c0.070-0.451-0.181-0.95-0.584-1.161l-1.641-0.86c-0.063-0.033-0.156-0.172-0.166-0.273l-0.092-0.633c-0.015-0.070 0.033-0.23 0.084-0.28l1.322-1.296c0.331-0.324 0.418-0.878 0.19-1.313l-0.599-1c-0.253-0.371-0.8-0.563-1.231-0.429l-1.825 0.558c-0.099 0-0.198-0.038-0.254-0.083l-0.515-0.38c-0.060-0.040-0.139-0.187-0.138-0.259l0.018-1.852c0.004-0.456-0.316-0.913-0.746-1.063 0 0-0.233-0.082-0.59-0.172s-0.601-0.128-0.601-0.128c-0.026-0.003-0.13-0.011-0.156-0.011-0.408 0-0.822 0.245-1.005 0.596l-0.86 1.641c-0.033 0.063-0.172 0.156-0.273 0.166l-0.663 0.095c-0.1 0-0.218-0.052-0.251-0.086l-1.296-1.322c-0.314-0.321-0.844-0.437-1.313-0.19l-1 0.598c-0.382 0.26-0.567 0.79-0.429 1.231l0.552 1.767c0.021 0.068-0.012 0.232-0.078 0.311l-0.379 0.515zM28.297 5.886l0.343-0.466c0.268-0.317 0.372-0.834 0.248-1.229l-0.551-1.766c-0.005-0.028 0.017-0.091 0.012-0.092l0.948-0.568 0.113 0.017 1.297 1.322c0.23 0.234 0.609 0.386 0.965 0.386 0.082 0 0.161-0.008 0.204-0.019l0.575-0.085c0.412-0.036 0.851-0.328 1.043-0.694l0.859-1.64c0.016-0.025 0.079-0.061 0.12-0.061 0.011 0.001 0.215 0.035 0.513 0.109s0.493 0.142 0.502 0.146c0.031 0.013 0.076 0.078 0.078 0.11l-0.018 1.852c-0.004 0.414 0.245 0.879 0.567 1.089l0.465 0.343c0.309 0.261 0.839 0.371 1.229 0.248l1.774-0.552c0.042 0 0.089 0.026 0.083 0.013l0.568 0.948c0.011 0.026 0 0.092-0.017 0.113l-1.322 1.297c-0.295 0.291-0.448 0.795-0.367 1.169l0.084 0.575c0.036 0.412 0.328 0.851 0.695 1.043l1.64 0.859c0.028 0.018 0.063 0.088 0.061 0.12-0.001 0.011-0.035 0.215-0.109 0.513s-0.142 0.493-0.146 0.502c-0.013 0.031-0.078 0.076-0.11 0.078l-1.862-0.018c-0.411 0-0.871 0.249-1.079 0.567l-0.342 0.465c-0.268 0.317-0.372 0.834-0.248 1.229l0.551 1.766c0.005 0.027-0.017 0.091-0.012 0.092l-0.948 0.568-0.113-0.017-1.297-1.322c-0.23-0.234-0.609-0.386-0.965-0.386-0.082 0-0.161 0.008-0.204 0.019l-0.575 0.085c-0.412 0.036-0.851 0.328-1.043 0.694l-0.859 1.64c-0.016 0.025-0.079 0.061-0.12 0.061v0c-0.011-0.001-0.215-0.035-0.513-0.109-0.297-0.075-0.493-0.142-0.502-0.146-0.031-0.013-0.076-0.078-0.078-0.11l0.018-1.852c0.004-0.414-0.245-0.879-0.567-1.089l-0.465-0.343c-0.222-0.188-0.549-0.3-0.875-0.3-0.126 0-0.246 0.018-0.355 0.052l-1.774 0.552c-0.043 0-0.090-0.023-0.083-0.013l-0.568-0.948c-0.011-0.026 0-0.092 0.017-0.113l1.322-1.297c0.295-0.291 0.448-0.795 0.367-1.169l-0.084-0.574c-0.036-0.412-0.328-0.851-0.695-1.043l-1.64-0.859c-0.028-0.018-0.063-0.088-0.061-0.12 0.001-0.011 0.035-0.215 0.109-0.513 0.075-0.297 0.142-0.493 0.146-0.502 0.013-0.031 0.078-0.076 0.11-0.078l1.862 0.018c0.411 0 0.871-0.249 1.079-0.567zM33 12c1.654 0 3-1.346 3-3s-1.346-3-3-3-3 1.346-3 3 1.346 3 3 3zM33 7c1.103 0 2 0.897 2 2s-0.897 2-2 2-2-0.897-2-2 0.897-2 2-2z"></path>
</symbol>
<symbol id="icon-settings" viewBox="0 0 24 24">
<path d="M9.998 8.498c2.039 0 3.702 1.531 3.95 3.502h3.516c-0.033-0.472-0.097-0.935-0.212-1.379l2.841-1.64-2.001-3.466-2.837 1.638c-0.895-0.881-2.010-1.532-3.255-1.877v-3.278h-4.002v3.278c-1.245 0.344-2.361 0.996-3.256 1.876l-2.836-1.637-2.001 3.466 2.839 1.639c-0.155 0.602-0.247 1.228-0.247 1.878s0.091 1.277 0.247 1.878l-2.839 1.64 2.001 3.465 2.835-1.637c0.895 0.881 2.012 1.532 3.257 1.876v3.278h4.002v-7.055c-0.591 0.344-1.269 0.556-2.002 0.556-2.209 0-4-1.791-4-4s1.791-4.001 4-4.001zM22.998 18c0-0.37-0.066-0.722-0.161-1.062l1.857-1.072-0.999-1.73-1.844 1.064c-0.501-0.51-1.14-0.875-1.853-1.061v-2.139h-1.998v2.139c-0.715 0.184-1.354 0.549-1.856 1.060l-1.841-1.063-0.999 1.73 1.853 1.069c-0.095 0.342-0.162 0.694-0.162 1.065s0.067 0.724 0.162 1.065l-1.853 1.069 0.999 1.73 1.841-1.063c0.502 0.511 1.142 0.876 1.856 1.060v2.139h1.998v-2.14c0.713-0.186 1.352-0.551 1.853-1.061l1.845 1.065 0.999-1.73-1.857-1.072c0.094-0.34 0.16-0.692 0.16-1.062zM18.996 19.998c-1.104 0-1.998-0.895-1.998-1.998s0.895-1.998 1.998-1.998 1.998 0.895 1.998 1.998-0.894 1.998-1.998 1.998z"></path>
</symbol>
<symbol id="icon-phone-portrait" viewBox="0 0 24 24">
<path d="M21 9h-7v2h7v8h-7c0 1.1-1 2-1 2h8c1.1 0 2-0.9 2-2v-8c0-1.1-0.9-2-2-2zM10 3h-8c-1.1 0-2 0.9-2 2v14c0 1.1 0.9 2 2 2h8c1.1 0 2-0.9 2-2v-14c0-1.1-0.9-2-2-2zM7 20h-2v-2h2v2zM10 17h-8v-12h8v12z"></path>
</symbol>
<symbol id="icon-map1" viewBox="0 0 24 24">
<path d="M15.418 0.581l-7.201 3.99-8.217-4.571v18.303l8.434 4.572 6.799-4.008 7.767 4.278v-18.271l-7.582-4.293zM21 12.234l-5-2.562v-6.278l5 2.678v6.162zM9 6.304l5-2.857v6.272l-5 2.857v-6.272zM9 13.729l5-2.858v6.274l-5 2.855v-6.271zM7 6.304v6.235l-5-3.007v-6.086l5 2.858zM2 10.7l5 3.007v6.293l-5-2.855v-6.445zM16 17.125v-6.329l5 2.562v6.445l-5-2.678z"></path>
</symbol>
<symbol id="icon-activity" viewBox="0 0 24 24">
<path d="M22 11h-4c-0.439 0-0.812 0.283-0.949 0.684l-2.051 6.154-5.051-15.154c-0.175-0.524-0.741-0.807-1.265-0.633-0.31 0.103-0.535 0.343-0.633 0.633l-2.772 8.316h-3.279c-0.552 0-1 0.448-1 1s0.448 1 1 1h4c0.423-0.003 0.81-0.267 0.949-0.684l2.051-6.154 5.051 15.154c0.098 0.29 0.323 0.529 0.632 0.632 0.524 0.175 1.090-0.109 1.265-0.632l2.773-8.316h3.279c0.552 0 1-0.448 1-1s-0.448-1-1-1z"></path>
</symbol>
<symbol id="icon-vpn_lock" viewBox="0 0 24 24">
<path d="M9.984 20.953v-1.969q-0.797 0-1.383-0.586t-0.586-1.383v-1.031l-4.828-4.781q-0.188 0.75-0.188 1.781 0 3.047 2.016 5.32t4.969 2.648zM18.938 12h2.016q0.047 0.328 0.047 0.984 0 4.172-2.93 7.102t-7.055 2.93q-4.172 0-7.102-2.93t-2.93-7.102q0-4.125 2.93-7.055t7.102-2.93q1.453 0 3 0.469v2.531q0 0.797-0.609 1.406t-1.406 0.609h-2.016v1.969q0 0.422-0.281 0.727t-0.703 0.305h-2.016v1.969h6q0.422 0 0.727 0.305t0.305 0.727v3h0.984q1.453 0 1.922 1.359 2.063-2.203 2.063-5.391 0-0.656-0.047-0.984zM21.188 3.984v-0.469q0-0.703-0.492-1.219t-1.195-0.516-1.195 0.516-0.492 1.219v0.469h3.375zM21.984 3.984q0.422 0 0.727 0.305t0.305 0.727v3.984q0 0.422-0.305 0.703t-0.727 0.281h-4.969q-0.422 0-0.727-0.281t-0.305-0.703v-3.984q0-0.422 0.305-0.727t0.727-0.305v-0.469q0-1.031 0.727-1.781t1.758-0.75 1.758 0.75 0.727 1.781v0.469z"></path>
</symbol>
<symbol id="icon-g_translate" viewBox="0 0 24 24">
<path d="M21.516 20.484v-13.969q0-0.422-0.305-0.727t-0.727-0.305h-9.047l1.313 3.797h1.453v-1.266h1.266v1.266h4.547v1.313h-1.922q-0.703 2.344-2.391 4.219l3.281 3.281-0.938 0.891-3.094-3.094 1.031 3.094-1.969 2.531h6.469q0.422 0 0.727-0.305t0.305-0.727zM13.172 10.594l0.797 2.344 0.844 1.125q1.453-1.594 2.063-3.469h-3.703zM6.984 15.984q2.156 0 3.492-1.359t1.336-3.516q0-0.047-0.141-1.031h-4.688v1.734h2.953q-0.094 0.891-0.844 1.641t-2.109 0.75q-1.313 0-2.227-0.938t-0.914-2.25q0-1.359 0.914-2.297t2.227-0.938q1.266 0 2.063 0.797l1.313-1.266q-1.453-1.313-3.375-1.313-2.063 0-3.516 1.477t-1.453 3.539 1.453 3.516 3.516 1.453zM21 3.984q0.797 0 1.406 0.609t0.609 1.406v15q0 0.797-0.609 1.406t-1.406 0.609h-9l-0.984-3h-8.016q-0.797 0-1.406-0.609t-0.609-1.406v-15q0-0.797 0.609-1.406t1.406-0.609h6.984l1.031 3h9.984z"></path>
</symbol>
<symbol id="icon-explore_off" viewBox="0 0 24 24">
<path d="M21.984 12q0 0.656-0.047 0.938v0.281q0 0.234-0.094 0.609 0 0.141-0.094 0.328l-0.141 0.563q-0.047 0.047-0.047 0.164t-0.047 0.164q-0.047 0.141-0.141 0.398t-0.141 0.352q-0.094 0.281-0.328 0.75l-0.164 0.328t-0.211 0.328q-0.047 0.047-0.164 0.234t-0.164 0.234l-5.203-5.203 3-6.469-6.469 3-5.203-5.203q0.047-0.047 0.234-0.164t0.234-0.164q0.047 0 0.141-0.094 0.094 0 0.094-0.047l0.188-0.094t0.164-0.094 0.188-0.094 0.211-0.094 0.234-0.141 0.234-0.094q0.094-0.047 0.328-0.117t0.375-0.117l0.328-0.094 0.563-0.141q0.141 0 0.328-0.094 0.375-0.094 0.609-0.094h0.328q0.141 0 0.422-0.023t0.469-0.023q4.125 0 7.055 2.93t2.93 7.055zM6 18l6.469-3-3.469-3.469zM2.25 2.25l19.5 19.5-1.313 1.266-2.766-2.813q-0.047 0.047-0.234 0.164t-0.234 0.164q-0.047 0-0.141 0.094-0.094 0-0.094 0.047-0.469 0.328-1.219 0.563l-0.703 0.281q-0.047 0.047-0.164 0.047t-0.164 0.047l-0.563 0.141q-0.188 0.094-0.328 0.094-0.375 0.094-0.609 0.094h-0.281q-0.281 0.047-0.938 0.047-4.125 0-7.055-2.93t-2.93-7.055q0-0.609 0.047-0.891v-0.328q0-0.234 0.094-0.609 0.094-0.188 0.094-0.328l0.141-0.563 0.094-0.328q0.047-0.141 0.117-0.375t0.117-0.328q0-0.047 0.094-0.211t0.141-0.258l0.375-0.75q0.047 0 0.094-0.094t0.047-0.141q0.047-0.047 0.164-0.234t0.164-0.234l-2.813-2.766z"></path>
</symbol>
<symbol id="icon-admin_panel_settings" viewBox="0 0 24 24">
<path d="M17.016 11.016q0.234 0 0.492 0.023t0.492 0.070v-4.828l-7.5-3.281-7.5 3.281v4.922q0 1.688 0.563 3.281t1.57 2.93 2.391 2.273 2.977 1.313q0.422-0.094 0.82-0.234t0.773-0.328q-0.516-0.703-0.797-1.594t-0.281-1.828q0-1.688 0.797-3.047t2.156-2.156 3.047-0.797zM17.016 12.984q-1.125 0-2.039 0.539t-1.453 1.453-0.539 2.039q0 1.078 0.539 1.992t1.453 1.453 2.039 0.539q1.078 0 1.992-0.539t1.453-1.453 0.539-1.992q0-1.125-0.539-2.039t-1.453-1.453-1.992-0.539zM17.016 14.391q0.469 0 0.797 0.328t0.328 0.797q0 0.422-0.352 0.773t-0.773 0.352q-0.469 0-0.797-0.352t-0.328-0.773q0-0.469 0.328-0.797t0.797-0.328zM17.016 19.734q-0.703 0-1.289-0.305t-0.961-0.867q0-0.328 0.422-0.586t0.938-0.375 0.891-0.117q0.328 0 0.867 0.117t0.938 0.375 0.398 0.586q-0.375 0.563-0.938 0.867t-1.266 0.305z"></path>
</symbol>
<symbol id="icon-fact_check" viewBox="0 0 24 24">
<path d="M20.016 3h-16.031q-0.797 0-1.383 0.586t-0.586 1.43v13.969q0 0.844 0.586 1.43t1.383 0.586h16.031q0.797 0 1.383-0.586t0.586-1.43v-13.969q0-0.844-0.586-1.43t-1.383-0.586zM9.984 17.016h-4.969v-2.016h4.969v2.016zM9.984 12.984h-4.969v-1.969h4.969v1.969zM9.984 9h-4.969v-2.016h4.969v2.016zM14.813 15l-2.813-2.859 1.406-1.406 1.406 1.453 3.188-3.188 1.406 1.406z"></path>
</symbol>
<symbol id="icon-handyman" viewBox="0 0 24 24">
<path d="M21.656 18.188l-5.297-5.297h-0.984l-2.531 2.531v0.984l5.297 5.297q0.281 0.281 0.703 0.281t0.703-0.281l2.109-2.109q0.328-0.281 0.328-0.703t-0.328-0.703zM17.344 10.172l1.406-1.406 2.109 2.156q0.609-0.609 0.797-1.383t0-1.523-0.797-1.359l-3.516-3.516-1.406 1.406v-2.859l-0.703-0.703-3.563 3.563 0.703 0.703h2.859l-1.406 1.406 1.031 1.078-2.859 2.859-4.172-4.125v-1.406l-3-3-2.813 2.813 3 3.047h1.406l4.125 4.125-0.844 0.844h-2.109l-5.297 5.297q-0.281 0.281-0.281 0.703t0.281 0.703l2.109 2.109q0.328 0.281 0.727 0.281t0.68-0.281l5.297-5.297v-2.109l5.156-5.156z"></path>
</symbol>
<symbol id="icon-coronavirus" viewBox="0 0 24 24">
<path d="M21.234 10.5q-0.281 0-0.516 0.211t-0.234 0.539h-1.547q-0.188-2.063-1.5-3.656l1.078-1.078h0.047q0.188 0.234 0.492 0.234t0.539-0.234 0.234-0.539-0.234-0.539l-1.031-1.031q-0.234-0.234-0.539-0.234t-0.539 0.234-0.234 0.539 0.234 0.492l-1.125 1.125q-0.75-0.656-1.664-1.031t-1.945-0.516v-1.5q0.328 0 0.539-0.234t0.211-0.516q0-0.328-0.211-0.539t-0.539-0.211h-1.5q-0.328 0-0.539 0.211t-0.211 0.539q0 0.281 0.211 0.516t0.539 0.234v1.547q-1.031 0.094-1.969 0.492t-1.688 1.008l-1.078-1.078v-0.047q0.234-0.188 0.234-0.492t-0.234-0.539-0.539-0.234-0.539 0.234l-1.031 1.031q-0.234 0.234-0.234 0.539t0.234 0.539 0.539 0.234 0.492-0.234l1.125 1.125q-0.656 0.75-1.031 1.664t-0.469 1.945h-1.547q0-0.328-0.234-0.539t-0.516-0.211q-0.328 0-0.539 0.211t-0.211 0.539v1.5q0 0.328 0.211 0.539t0.539 0.211q0.281 0 0.516-0.211t0.234-0.539h1.547q0.094 1.031 0.492 1.945t1.008 1.664l-1.125 1.125q-0.188-0.234-0.492-0.234t-0.539 0.234-0.234 0.539 0.234 0.539l1.031 1.031q0.234 0.234 0.539 0.234t0.539-0.234 0.234-0.539-0.234-0.492v-0.047l1.078-1.078q0.75 0.609 1.688 1.008t1.969 0.492v1.547q-0.328 0-0.539 0.234t-0.211 0.516q0 0.328 0.211 0.539t0.539 0.211h1.5q0.281 0 0.516-0.211t0.234-0.539q0-0.281-0.234-0.516t-0.516-0.234v0-1.547q0.984-0.094 1.922-0.492t1.688-1.008l1.078 1.125q-0.188 0.188-0.188 0.492t0.234 0.539q0.188 0.234 0.516 0.234t0.516-0.234l1.078-1.078q0.234-0.188 0.234-0.516t-0.234-0.516q-0.234-0.234-0.539-0.234t-0.539 0.234v0l-1.078-1.078q0.609-0.797 1.008-1.711t0.492-1.945h1.547q0 0.281 0.234 0.516t0.516 0.234q0.328 0 0.539-0.234t0.211-0.516v-1.5q0-0.328-0.211-0.539t-0.539-0.211zM13.734 8.016q0.422 0 0.727 0.281t0.305 0.703-0.305 0.703-0.727 0.281q-0.375 0-0.68-0.281t-0.305-0.703 0.305-0.703 0.68-0.281zM12 12.984q-0.422 0-0.703-0.281t-0.281-0.703 0.281-0.703 0.703-0.281 0.703 0.281 0.281 0.703-0.281 0.703-0.703 0.281zM10.266 8.016q0.375 0 0.68 0.281t0.305 0.703-0.305 0.703-0.68 0.281q-0.422 0-0.727-0.281t-0.305-0.703 0.305-0.703 0.727-0.281zM8.484 12.984q-0.375 0-0.68-0.281t-0.305-0.703 0.305-0.703 0.68-0.281q0.422 0 0.727 0.281t0.305 0.703-0.305 0.703-0.727 0.281zM10.266 15.984q-0.422 0-0.727-0.281t-0.305-0.703 0.305-0.703 0.727-0.281q0.375 0 0.68 0.281t0.305 0.703-0.305 0.703-0.68 0.281zM13.734 15.984q-0.375 0-0.68-0.281t-0.305-0.703 0.305-0.703 0.68-0.281q0.422 0 0.727 0.281t0.305 0.703-0.305 0.703-0.727 0.281zM14.484 12q0-0.422 0.305-0.703t0.727-0.281q0.375 0 0.68 0.281t0.305 0.703-0.305 0.703-0.68 0.281q-0.422 0-0.727-0.281t-0.305-0.703z"></path>
</symbol>
<symbol id="icon-power-off" viewBox="0 0 24 28">
<path d="M24 14c0 6.609-5.391 12-12 12s-12-5.391-12-12c0-3.797 1.75-7.297 4.797-9.578 0.891-0.672 2.141-0.5 2.797 0.391 0.672 0.875 0.484 2.141-0.391 2.797-2.031 1.531-3.203 3.859-3.203 6.391 0 4.406 3.594 8 8 8s8-3.594 8-8c0-2.531-1.172-4.859-3.203-6.391-0.875-0.656-1.062-1.922-0.391-2.797 0.656-0.891 1.922-1.062 2.797-0.391 3.047 2.281 4.797 5.781 4.797 9.578zM14 2v10c0 1.094-0.906 2-2 2s-2-0.906-2-2v-10c0-1.094 0.906-2 2-2s2 0.906 2 2z"></path>
</symbol>
<symbol id="icon-edit" viewBox="0 0 28 28">
<path d="M13.875 18.5l1.813-1.813-2.375-2.375-1.813 1.813v0.875h1.5v1.5h0.875zM20.75 7.25c-0.141-0.141-0.375-0.125-0.516 0.016l-5.469 5.469c-0.141 0.141-0.156 0.375-0.016 0.516s0.375 0.125 0.516-0.016l5.469-5.469c0.141-0.141 0.156-0.375 0.016-0.516zM22 16.531v2.969c0 2.484-2.016 4.5-4.5 4.5h-13c-2.484 0-4.5-2.016-4.5-4.5v-13c0-2.484 2.016-4.5 4.5-4.5h13c0.625 0 1.25 0.125 1.828 0.391 0.141 0.063 0.25 0.203 0.281 0.359 0.031 0.172-0.016 0.328-0.141 0.453l-0.766 0.766c-0.141 0.141-0.328 0.187-0.5 0.125-0.234-0.063-0.469-0.094-0.703-0.094h-13c-1.375 0-2.5 1.125-2.5 2.5v13c0 1.375 1.125 2.5 2.5 2.5h13c1.375 0 2.5-1.125 2.5-2.5v-1.969c0-0.125 0.047-0.25 0.141-0.344l1-1c0.156-0.156 0.359-0.187 0.547-0.109s0.313 0.25 0.313 0.453zM20.5 5l4.5 4.5-10.5 10.5h-4.5v-4.5zM27.438 7.063l-1.437 1.437-4.5-4.5 1.437-1.437c0.578-0.578 1.547-0.578 2.125 0l2.375 2.375c0.578 0.578 0.578 1.547 0 2.125z"></path>
</symbol>
<symbol id="icon-chevron-down" viewBox="0 0 28 28">
<path d="M26.297 12.625l-11.594 11.578c-0.391 0.391-1.016 0.391-1.406 0l-11.594-11.578c-0.391-0.391-0.391-1.031 0-1.422l2.594-2.578c0.391-0.391 1.016-0.391 1.406 0l8.297 8.297 8.297-8.297c0.391-0.391 1.016-0.391 1.406 0l2.594 2.578c0.391 0.391 0.391 1.031 0 1.422z"></path>
</symbol>
<symbol id="icon-unlock" viewBox="0 0 26 28">
<path d="M26 9v4c0 0.547-0.453 1-1 1h-1c-0.547 0-1-0.453-1-1v-4c0-2.203-1.797-4-4-4s-4 1.797-4 4v3h1.5c0.828 0 1.5 0.672 1.5 1.5v9c0 0.828-0.672 1.5-1.5 1.5h-15c-0.828 0-1.5-0.672-1.5-1.5v-9c0-0.828 0.672-1.5 1.5-1.5h10.5v-3c0-3.859 3.141-7 7-7s7 3.141 7 7z"></path>
</symbol>
<symbol id="icon-bell-o" viewBox="0 0 28 28">
<path d="M14.25 26.5c0-0.141-0.109-0.25-0.25-0.25-1.234 0-2.25-1.016-2.25-2.25 0-0.141-0.109-0.25-0.25-0.25s-0.25 0.109-0.25 0.25c0 1.516 1.234 2.75 2.75 2.75 0.141 0 0.25-0.109 0.25-0.25zM3.844 22h20.312c-2.797-3.156-4.156-7.438-4.156-13 0-2.016-1.906-5-6-5s-6 2.984-6 5c0 5.563-1.359 9.844-4.156 13zM27 22c0 1.094-0.906 2-2 2h-7c0 2.203-1.797 4-4 4s-4-1.797-4-4h-7c-1.094 0-2-0.906-2-2 2.312-1.953 5-5.453 5-13 0-3 2.484-6.281 6.625-6.891-0.078-0.187-0.125-0.391-0.125-0.609 0-0.828 0.672-1.5 1.5-1.5s1.5 0.672 1.5 1.5c0 0.219-0.047 0.422-0.125 0.609 4.141 0.609 6.625 3.891 6.625 6.891 0 7.547 2.688 11.047 5 13z"></path>
</symbol>
<symbol id="icon-globe" viewBox="0 0 24 28">
<path d="M12 2c6.625 0 12 5.375 12 12s-5.375 12-12 12-12-5.375-12-12 5.375-12 12-12zM16.281 10.141c-0.125 0.094-0.203 0.266-0.359 0.297 0.078-0.016 0.156-0.297 0.203-0.359 0.094-0.109 0.219-0.172 0.344-0.234 0.266-0.109 0.531-0.141 0.812-0.187 0.266-0.063 0.594-0.063 0.797 0.172-0.047-0.047 0.328-0.375 0.375-0.391 0.141-0.078 0.375-0.047 0.469-0.187 0.031-0.047 0.031-0.344 0.031-0.344-0.266 0.031-0.359-0.219-0.375-0.438 0 0.016-0.031 0.063-0.094 0.125 0.016-0.234-0.281-0.063-0.391-0.094-0.359-0.094-0.313-0.344-0.422-0.609-0.063-0.141-0.234-0.187-0.297-0.328-0.063-0.094-0.094-0.297-0.234-0.313-0.094-0.016-0.266 0.328-0.297 0.313-0.141-0.078-0.203 0.031-0.313 0.094-0.094 0.063-0.172 0.031-0.266 0.078 0.281-0.094-0.125-0.25-0.266-0.219 0.219-0.063 0.109-0.297-0.016-0.406h0.078c-0.031-0.141-0.469-0.266-0.609-0.359s-0.891-0.25-1.047-0.156c-0.187 0.109 0.047 0.422 0.047 0.578 0.016 0.187-0.187 0.234-0.187 0.391 0 0.266 0.5 0.219 0.375 0.578-0.078 0.219-0.375 0.266-0.5 0.438-0.125 0.156 0.016 0.438 0.141 0.547 0.125 0.094-0.219 0.25-0.266 0.281-0.266 0.125-0.469-0.266-0.531-0.5-0.047-0.172-0.063-0.375-0.25-0.469-0.094-0.031-0.391-0.078-0.453 0.016-0.094-0.234-0.422-0.328-0.641-0.406-0.313-0.109-0.578-0.109-0.906-0.063 0.109-0.016-0.031-0.5-0.297-0.422 0.078-0.156 0.047-0.328 0.078-0.484 0.031-0.125 0.094-0.25 0.187-0.359 0.031-0.063 0.375-0.422 0.266-0.438 0.266 0.031 0.562 0.047 0.781-0.172 0.141-0.141 0.203-0.375 0.344-0.531 0.203-0.234 0.453 0.063 0.672 0.078 0.313 0.016 0.297-0.328 0.125-0.484 0.203 0.016 0.031-0.359-0.078-0.406-0.141-0.047-0.672 0.094-0.391 0.203-0.063-0.031-0.438 0.75-0.656 0.359-0.063-0.078-0.094-0.406-0.234-0.422-0.125 0-0.203 0.141-0.25 0.234 0.078-0.203-0.438-0.344-0.547-0.359 0.234-0.156 0.047-0.328-0.125-0.422-0.125-0.078-0.516-0.141-0.625-0.016-0.297 0.359 0.313 0.406 0.469 0.5 0.047 0.031 0.234 0.141 0.125 0.219-0.094 0.047-0.375 0.125-0.406 0.187-0.094 0.141 0.109 0.297-0.031 0.438-0.141-0.141-0.141-0.375-0.25-0.531 0.141 0.172-0.562 0.078-0.547 0.078-0.234 0-0.609 0.156-0.781-0.078-0.031-0.063-0.031-0.422 0.063-0.344-0.141-0.109-0.234-0.219-0.328-0.281-0.516 0.172-1 0.391-1.469 0.641 0.063 0.016 0.109 0.016 0.187-0.016 0.125-0.047 0.234-0.125 0.359-0.187 0.156-0.063 0.484-0.25 0.656-0.109 0.016-0.031 0.063-0.063 0.078-0.078 0.109 0.125 0.219 0.25 0.313 0.391-0.125-0.063-0.328-0.031-0.469-0.016-0.109 0.031-0.297 0.063-0.344 0.187 0.047 0.078 0.109 0.203 0.078 0.281-0.203-0.141-0.359-0.375-0.641-0.406-0.125 0-0.25 0-0.344 0.016-1.5 0.828-2.766 2.031-3.672 3.469 0.063 0.063 0.125 0.109 0.187 0.125 0.156 0.047 0 0.5 0.297 0.266 0.094 0.078 0.109 0.187 0.047 0.297 0.016-0.016 0.641 0.391 0.688 0.422 0.109 0.094 0.281 0.203 0.328 0.328 0.031 0.109-0.063 0.234-0.156 0.281-0.016-0.031-0.25-0.266-0.281-0.203-0.047 0.078 0 0.5 0.172 0.484-0.25 0.016-0.141 0.984-0.203 1.172 0 0.016 0.031 0.016 0.031 0.016-0.047 0.187 0.109 0.922 0.422 0.844-0.203 0.047 0.359 0.766 0.438 0.812 0.203 0.141 0.438 0.234 0.578 0.438 0.156 0.219 0.156 0.547 0.375 0.719-0.063 0.187 0.328 0.406 0.313 0.672-0.031 0.016-0.047 0.016-0.078 0.031 0.078 0.219 0.375 0.219 0.484 0.422 0.063 0.125 0 0.422 0.203 0.359 0.031-0.344-0.203-0.688-0.375-0.969-0.094-0.156-0.187-0.297-0.266-0.453-0.078-0.141-0.094-0.313-0.156-0.469 0.063 0.016 0.406 0.141 0.375 0.187-0.125 0.313 0.5 0.859 0.672 1.062 0.047 0.047 0.406 0.516 0.219 0.516 0.203 0 0.484 0.313 0.578 0.469 0.141 0.234 0.109 0.531 0.203 0.781 0.094 0.313 0.531 0.453 0.781 0.594 0.219 0.109 0.406 0.266 0.625 0.344 0.328 0.125 0.406 0.016 0.688-0.031 0.406-0.063 0.453 0.391 0.781 0.562 0.203 0.109 0.641 0.266 0.859 0.172-0.094 0.031 0.328 0.672 0.359 0.719 0.141 0.187 0.406 0.281 0.562 0.469 0.047-0.031 0.094-0.078 0.109-0.141-0.063 0.172 0.234 0.5 0.391 0.469 0.172-0.031 0.219-0.375 0.219-0.5-0.313 0.156-0.594 0.031-0.766-0.281-0.031-0.078-0.281-0.516-0.063-0.516 0.297 0 0.094-0.234 0.063-0.453s-0.25-0.359-0.359-0.547c-0.094 0.187-0.406 0.141-0.5-0.016 0 0.047-0.047 0.125-0.047 0.187-0.078 0-0.156 0.016-0.234-0.016 0.031-0.187 0.047-0.422 0.094-0.625 0.078-0.281 0.594-0.828-0.078-0.797-0.234 0.016-0.328 0.109-0.406 0.313-0.078 0.187-0.047 0.359-0.266 0.453-0.141 0.063-0.609 0.031-0.75-0.047-0.297-0.172-0.5-0.719-0.5-1.031-0.016-0.422 0.203-0.797 0-1.188 0.094-0.078 0.187-0.234 0.297-0.313 0.094-0.063 0.203 0.047 0.25-0.141-0.047-0.031-0.109-0.094-0.125-0.094 0.234 0.109 0.672-0.156 0.875 0 0.125 0.094 0.266 0.125 0.344-0.031 0.016-0.047-0.109-0.234-0.047-0.359 0.047 0.266 0.219 0.313 0.453 0.141 0.094 0.094 0.344 0.063 0.516 0.156 0.172 0.109 0.203 0.281 0.406 0.047 0.125 0.187 0.141 0.187 0.187 0.375 0.047 0.172 0.141 0.609 0.297 0.688 0.328 0.203 0.25-0.344 0.219-0.531-0.016-0.016-0.016-0.531-0.031-0.531-0.5-0.109-0.313-0.5-0.031-0.766 0.047-0.031 0.406-0.156 0.562-0.281 0.141-0.125 0.313-0.344 0.234-0.547 0.078 0 0.141-0.063 0.172-0.141-0.047-0.016-0.234-0.172-0.266-0.156 0.109-0.063 0.094-0.156 0.031-0.25 0.156-0.094 0.078-0.266 0.234-0.328 0.172 0.234 0.516-0.031 0.344-0.219 0.156-0.219 0.516-0.109 0.609-0.313 0.234 0.063 0.063-0.234 0.187-0.406 0.109-0.141 0.297-0.141 0.438-0.219 0 0.016 0.391-0.219 0.266-0.234 0.266 0.031 0.797-0.25 0.391-0.484 0.063-0.141-0.141-0.203-0.281-0.234 0.109-0.031 0.25 0.031 0.344-0.031 0.203-0.141 0.063-0.203-0.109-0.25-0.219-0.063-0.5 0.078-0.672 0.187zM13.734 23.844c2.141-0.375 4.047-1.437 5.484-2.953-0.094-0.094-0.266-0.063-0.391-0.125-0.125-0.047-0.219-0.094-0.375-0.125 0.031-0.313-0.313-0.422-0.531-0.578-0.203-0.156-0.328-0.328-0.625-0.266-0.031 0.016-0.344 0.125-0.281 0.187-0.203-0.172-0.297-0.266-0.562-0.344-0.25-0.078-0.422-0.391-0.672-0.109-0.125 0.125-0.063 0.313-0.125 0.438-0.203-0.172 0.187-0.375 0.031-0.562-0.187-0.219-0.516 0.141-0.672 0.234-0.094 0.078-0.203 0.109-0.266 0.203-0.078 0.109-0.109 0.25-0.172 0.359-0.047-0.125-0.313-0.094-0.328-0.187 0.063 0.375 0.063 0.766 0.141 1.141 0.047 0.219 0 0.578-0.187 0.75s-0.422 0.359-0.453 0.625c-0.031 0.187 0.016 0.359 0.187 0.406 0.016 0.234-0.25 0.406-0.234 0.656 0 0.016 0.016 0.172 0.031 0.25z"></path>
</symbol>
<symbol id="icon-group" viewBox="0 0 30 28">
<path d="M9.266 14c-1.625 0.047-3.094 0.75-4.141 2h-2.094c-1.563 0-3.031-0.75-3.031-2.484 0-1.266-0.047-5.516 1.937-5.516 0.328 0 1.953 1.328 4.062 1.328 0.719 0 1.406-0.125 2.078-0.359-0.047 0.344-0.078 0.688-0.078 1.031 0 1.422 0.453 2.828 1.266 4zM26 23.953c0 2.531-1.672 4.047-4.172 4.047h-13.656c-2.5 0-4.172-1.516-4.172-4.047 0-3.531 0.828-8.953 5.406-8.953 0.531 0 2.469 2.172 5.594 2.172s5.063-2.172 5.594-2.172c4.578 0 5.406 5.422 5.406 8.953zM10 4c0 2.203-1.797 4-4 4s-4-1.797-4-4 1.797-4 4-4 4 1.797 4 4zM21 10c0 3.313-2.688 6-6 6s-6-2.688-6-6 2.688-6 6-6 6 2.688 6 6zM30 13.516c0 1.734-1.469 2.484-3.031 2.484h-2.094c-1.047-1.25-2.516-1.953-4.141-2 0.812-1.172 1.266-2.578 1.266-4 0-0.344-0.031-0.688-0.078-1.031 0.672 0.234 1.359 0.359 2.078 0.359 2.109 0 3.734-1.328 4.062-1.328 1.984 0 1.937 4.25 1.937 5.516zM28 4c0 2.203-1.797 4-4 4s-4-1.797-4-4 1.797-4 4-4 4 1.797 4 4z"></path>
</symbol>
<symbol id="icon-dashboard" viewBox="0 0 28 28">
<path d="M6 18c0-1.109-0.891-2-2-2s-2 0.891-2 2 0.891 2 2 2 2-0.891 2-2zM9 11c0-1.109-0.891-2-2-2s-2 0.891-2 2 0.891 2 2 2 2-0.891 2-2zM15.687 18.516l1.578-5.969c0.125-0.531-0.187-1.078-0.719-1.219v0c-0.531-0.141-1.078 0.187-1.219 0.719l-1.578 5.969c-1.234 0.094-2.312 0.953-2.656 2.219-0.422 1.609 0.547 3.25 2.141 3.672 1.609 0.422 3.25-0.547 3.672-2.141 0.328-1.266-0.203-2.547-1.219-3.25zM26 18c0-1.109-0.891-2-2-2s-2 0.891-2 2 0.891 2 2 2 2-0.891 2-2zM16 8c0-1.109-0.891-2-2-2s-2 0.891-2 2 0.891 2 2 2 2-0.891 2-2zM23 11c0-1.109-0.891-2-2-2s-2 0.891-2 2 0.891 2 2 2 2-0.891 2-2zM28 18c0 2.688-0.766 5.281-2.203 7.547-0.187 0.281-0.5 0.453-0.844 0.453h-21.906c-0.344 0-0.656-0.172-0.844-0.453-1.437-2.25-2.203-4.859-2.203-7.547 0-7.719 6.281-14 14-14s14 6.281 14 14z"></path>
</symbol>
<symbol id="icon-automobile" viewBox="0 0 32 28">
<path d="M7.5 17c0-1.375-1.125-2.5-2.5-2.5s-2.5 1.125-2.5 2.5 1.125 2.5 2.5 2.5 2.5-1.125 2.5-2.5zM8.062 12h15.875l-1.391-5.578c-0.047-0.172-0.359-0.422-0.547-0.422h-12c-0.187 0-0.5 0.25-0.547 0.422zM29.5 17c0-1.375-1.125-2.5-2.5-2.5s-2.5 1.125-2.5 2.5 1.125 2.5 2.5 2.5 2.5-1.125 2.5-2.5zM32 15.5v6c0 0.281-0.219 0.5-0.5 0.5h-1.5v2c0 1.656-1.344 3-3 3s-3-1.344-3-3v-2h-16v2c0 1.656-1.344 3-3 3s-3-1.344-3-3v-2h-1.5c-0.281 0-0.5-0.219-0.5-0.5v-6c0-1.937 1.563-3.5 3.5-3.5h0.438l1.641-6.547c0.484-1.969 2.391-3.453 4.422-3.453h12c2.031 0 3.938 1.484 4.422 3.453l1.641 6.547h0.438c1.937 0 3.5 1.563 3.5 3.5z"></path>
</symbol>
<symbol id="icon-object-group" viewBox="0 0 32 28">
<path d="M32 6h-2v16h2v6h-6v-2h-20v2h-6v-6h2v-16h-2v-6h6v2h20v-2h6v6zM28 2v2h2v-2h-2zM2 2v2h2v-2h-2zM4 26v-2h-2v2h2zM26 24v-2h2v-16h-2v-2h-20v2h-2v16h2v2h20zM30 26v-2h-2v2h2zM20 10h6v12h-14v-4h-6v-12h14v4zM8 16h10v-8h-10v8zM24 20v-8h-4v6h-6v2h10z"></path>
</symbol>
<symbol id="icon-object-ungroup" viewBox="0 0 36 28">
<path d="M36 12h-2v10h2v6h-6v-2h-14v2h-6v-6h2v-2h-6v2h-6v-6h2v-10h-2v-6h6v2h14v-2h6v6h-2v2h6v-2h6v6zM32 8v2h2v-2h-2zM22 2v2h2v-2h-2zM2 2v2h2v-2h-2zM4 20v-2h-2v2h2zM24 18h-2v2h2v-2zM6 18h14v-2h2v-10h-2v-2h-14v2h-2v10h2v2zM14 26v-2h-2v2h2zM34 26v-2h-2v2h2zM32 22v-10h-2v-2h-6v6h2v6h-6v-2h-6v2h2v2h14v-2h2z"></path>
</symbol>
<symbol id="icon-first-order" viewBox="0 0 24 28">
<path d="M20.656 14c0 0.406-0.016 0.797-0.078 1.188l-3.687-0.219 3.5 1.219c-0.203 0.797-0.516 1.531-0.906 2.203l-3.344-1.609 2.766 2.469c-0.469 0.641-1.031 1.203-1.672 1.687l-2.453-2.781 1.609 3.359c-0.672 0.406-1.406 0.703-2.188 0.922l-1.234-3.563 0.219 3.75c-0.391 0.063-0.781 0.094-1.188 0.094-0.391 0-0.797-0.031-1.188-0.094l0.219-3.719-1.219 3.531c-0.781-0.203-1.516-0.516-2.188-0.922l1.609-3.359-2.453 2.781c-0.641-0.469-1.203-1.047-1.687-1.687l2.781-2.469-3.344 1.625c-0.391-0.688-0.703-1.422-0.906-2.203l3.5-1.234-3.703 0.219c-0.047-0.391-0.078-0.781-0.078-1.188s0.031-0.812 0.078-1.203l3.719 0.219-3.516-1.234c0.203-0.781 0.516-1.516 0.906-2.188l3.344 1.625-2.766-2.484c0.484-0.641 1.047-1.203 1.672-1.687l2.469 2.781-1.609-3.359c0.672-0.391 1.406-0.703 2.188-0.906l1.203 3.5-0.203-3.687c0.375-0.063 0.781-0.094 1.172-0.094 0.406 0 0.797 0.031 1.188 0.094l-0.219 3.703 1.219-3.516c0.781 0.203 1.516 0.516 2.188 0.922l-1.609 3.344 2.469-2.781c0.625 0.484 1.188 1.047 1.672 1.687l-2.766 2.484 3.328-1.625c0.406 0.672 0.703 1.422 0.906 2.203l-3.5 1.219 3.703-0.219c0.063 0.391 0.078 0.797 0.078 1.203zM21.125 14c0-5.078-4.094-9.188-9.125-9.188-5.047 0-9.125 4.109-9.125 9.188 0 5.063 4.078 9.172 9.125 9.172 5.031 0 9.125-4.109 9.125-9.172zM22.266 8.016v11.969l-10.266 5.984-10.266-5.984v-11.969l10.266-5.984zM12 26.859l11.062-6.438v-12.859l-11.062-6.422-11.062 6.422v12.859zM24 7v14l-12 7-12-7v-14l12-7z"></path>
</symbol>
<symbol id="icon-earth" viewBox="0 0 48 48">
<path d="M0 24c0 13.26 10.74 24 24 24s24-10.74 24-24-10.74-24-24-24-24 10.74-24 24zM5 24c0-1.54 0.18-3.040 0.53-4.47l4.47 4.47-1 6 4 4v5.49c-4.84-3.44-8-9.099-8-15.49zM19.63 5.51c1.4-0.34 2.86-0.51 4.37-0.51 1.67 0 3.29 0.22 4.83 0.62l-0.83 1.38 1 1h3l0.83-0.83c0.699 0.37 1.359 0.77 2 1.22l-1.83 0.61-2 2 2 1v1h-2v2c0 0 1.38 1 3 1 1.59 0 0.88-2.19 2-3 1.13-0.81 2.5-0.63 2.5-0.63l0.65 0.17c1.22 1.61 2.189 3.41 2.85 5.36v0.1c0 0-1.41-1-4-1s-5 1-5 1-2.82 0.82-3 3c-0.311 3.75 1 5 1 5l5 3v9.73c-3.27 2.67-7.45 4.27-12 4.27-2.15 0-4.21-0.35-6.14-1.010l5.14-11.99-1-5c0 0-3.97-5-6-5s-3 3-3 3l-2-4 6-4 3-8-0.37-1.49z"></path>
</symbol>
<symbol id="icon-globe1" viewBox="0 0 48 48">
<path d="M0 24.5c0 12.98 10.52 23.5 23.5 23.5s23.5-10.52 23.5-23.5c0-12.98-10.52-23.5-23.5-23.5s-23.5 10.52-23.5 23.5zM5 24.5c0-1.2 0.11-2.37 0.33-3.5h4.8c-0.090 0.99-0.13 1.99-0.13 3s0.040 2.010 0.13 3h-4.97c-0.11-0.82-0.16-1.65-0.16-2.5zM7.070 16c1.46-2.83 3.63-5.23 6.28-6.97-1.050 2.21-1.87 4.54-2.44 6.97h-3.84zM20.85 6.19l0.15-0.020v9.83h-4.92c0.99-3.58 2.62-6.9 4.77-9.81zM26 6.17l0.14 0.020c2.15 2.91 3.79 6.23 4.78 9.81l-4.92 0v-9.83zM33.64 9.030c2.65 1.74 4.83 4.14 6.29 6.97h-3.85c-0.56-2.43-1.391-4.76-2.44-6.97zM41.67 21c0.22 1.13 0.33 2.3 0.33 3.5 0 0.85-0.061 1.68-0.17 2.5h-4.95c0.080-0.99 0.12-1.99 0.12-3s-0.040-2.010-0.12-3h4.79zM40.42 32c-1.57 3.53-4.21 6.48-7.51 8.43 1.4-2.63 2.47-5.459 3.17-8.43h4.34zM14.090 40.43c-3.3-1.95-5.94-4.9-7.51-8.43h4.34c0.7 2.971 1.77 5.811 3.17 8.43zM15.15 21h5.85v6h-5.85c-0.1-0.99-0.15-1.99-0.15-3s0.050-2.010 0.15-3zM26 21h5.85c0.1 0.99 0.15 1.99 0.15 3s-0.050 2.010-0.15 3h-5.85v-6zM16.080 32h4.92v10c-2.22-2.96-3.91-6.34-4.92-10zM26 32h4.92c-1.010 3.66-2.7 7.040-4.92 10v-10z"></path>
</symbol>
<symbol id="icon-location" viewBox="0 0 48 48">
<path d="M21 15.5c0-1.38 1.12-2.5 2.5-2.5s2.5 1.12 2.5 2.5-1.12 2.5-2.5 2.5-2.5-1.12-2.5-2.5zM23.5 9c-3.59 0-6.5 2.91-6.5 6.5s2.91 6.5 6.5 6.5c3.59 0 6.5-2.91 6.5-6.5s-2.91-6.5-6.5-6.5zM8 15.22c0 10.2 12.030 18.050 13 29.78v0.5c0 1.38 1.12 2.5 2.5 2.5s2.5-1.12 2.5-2.5l-0-0.5c1.029-11.73 13-19.58 13-29.78 0-8.41-6.939-15.22-15.5-15.22s-15.5 6.81-15.5 15.22zM23.5 5c5.8 0 10.5 4.7 10.5 10.5s-4.7 10.5-10.5 10.5-10.5-4.7-10.5-10.5 4.7-10.5 10.5-10.5z"></path>
</symbol>
<symbol id="icon-board" viewBox="0 0 48 48">
<path d="M23.5 31.97c-1.12-1.42-2.1-2.12-4.53-2.359-0.44-0.080-0.76-0.46-0.76-0.91 0-0.33 1.080-1.32 1.069-1.33 1.121-1.131 1.721-2.961 1.721-4.371 0-2.189-1.939-4-4.5-4-2.61 0-4.5 1.811-4.5 4 0 1.42 0.59 3.26 1.71 4.391 0 0 1.080 0.979 1.080 1.31 0 0.47-0.36 0.87-0.84 0.93-2.381 0.24-3.341 0.94-4.45 2.34-0.311 0.41-0.49 1.22-0.5 1.65v1.88c0 0.83 0.689 1.5 1.54 1.5h11.92c0.851 0 1.54-0.67 1.54-1.5v-1.88c-0.010-0.432-0.181-1.241-0.5-1.651zM35.5 21h-5c-1.38 0-2.5 1.12-2.5 2.5s1.12 2.5 2.5 2.5h5c1.38 0 2.5-1.12 2.5-2.5s-1.12-2.5-2.5-2.5zM35.5 30h-5c-1.38 0-2.5 1.12-2.5 2.5s1.12 2.5 2.5 2.5h5c1.38 0 2.5-1.12 2.5-2.5s-1.12-2.5-2.5-2.5zM0 42c0 2.21 1.79 4 4 4h40c2.21 0 4-1.79 4-4l-0-32c0-2.21-1.79-4-4-4h-12v-1.8c0-1.22-0.98-2.2-2.2-2.2h-11.6c-1.22 0-2.2 0.98-2.2 2.2v1.8h-12c-2.21 0-4 1.79-4 4v32zM7.2 11h8.8v1.8c0 1.22 0.98 2.2 2.2 2.2h11.6c1.22 0 2.2-0.98 2.2-2.2l-0-1.8h8.8c1.22 0 2.2 0.98 2.2 2.2v25.6c0 1.22-0.98 2.2-2.2 2.2l-33.6-0c-1.22 0-2.2-0.98-2.2-2.2v-25.6c0-1.22 0.98-2.2 2.2-2.2z"></path>
</symbol>
<symbol id="icon-user" viewBox="0 0 48 48">
<path d="M41.689 34.59c-2.1-2.74-4.64-4.52-8.279-5.529l-3.41 11.939c0 1.1-0.9 2-2 2s-2-0.9-2-2v-9.5c0-1.38-1.12-2.5-2.5-2.5s-2.5 1.12-2.5 2.5v9.5c0 1.1-0.9 2-2 2s-2-0.9-2-2l-3.41-11.939c-3.64 1.020-6.18 2.789-8.28 5.529-0.83 1.080-1.28 3.25-1.31 4.41v5c0 2.21 1.79 4 4 4h31c2.21 0 4-1.79 4-4v-5c-0.030-1.16-0.48-3.33-1.311-4.41zM23.5 25c6.74 0 10.5-8.58 10.5-14.42s-4.7-10.58-10.5-10.58-10.5 4.74-10.5 10.58 3.64 14.42 10.5 14.42z"></path>
</symbol>
<symbol id="icon-user1" viewBox="0 0 48 48">
<path d="M41.689 34.59c-1.17-1.529-2.479-2.76-4.050-3.729-2.429 5.389-7.849 9.139-14.139 9.139s-11.71-3.75-14.141-9.14c-1.56 0.97-2.879 2.2-4.049 3.729-0.83 1.081-1.281 3.251-1.31 4.411 0.010 0.3 0 5 0 5 0 2.21 1.79 4 4 4h31c2.21 0 4-1.79 4-4 0 0-0.010-4.7 0-5-0.030-1.16-0.48-3.33-1.311-4.41zM18.069 28.25c-0.839 0.090-1.64 0.2-2.399 0.33-0.87 0.22-1.53 1.010-1.53 1.95 0 0.39 0.11 0.739 0.3 1.050 2.1 2.69 5.379 4.42 9.060 4.42 3.59 0 6.79-1.64 8.9-4.21 0.279-0.34 0.439-0.78 0.439-1.26 0-0.98-0.71-1.8-1.65-1.97-0.779-0.141-1.6-0.261-2.479-0.351-1.13-0.209-1.98-1.009-1.98-2.209 0-1.1 0.819-1.939 1.92-2.080 0.109-0.020 0.369-0.029 0.369-0.029 5.381-0.381 9.041-1.471 11.45-3.551 0.331-0.35 0.531-0.82 0.531-1.34 0-1.040-0.79-1.89-1.8-1.99-2.97-0.6-5.2-3.060-5.2-6.010v-0.42c0-5.84-4.7-10.58-10.5-10.58s-10.5 4.74-10.5 10.58v0.42c0 2.95-2.23 5.41-5.2 6.010-1.010 0.1-1.8 0.95-1.8 1.99 0 0.52 0.2 0.99 0.529 1.34 2.421 2.080 6.080 3.17 11.471 3.551 0.16 0 0.311 0.010 0.45 0.029 1.119 0.16 1.819 0.96 1.819 2.080 0.001 1.28-0.958 2.1-2.2 2.25z"></path>
</symbol>
<symbol id="icon-unlock-fill" viewBox="0 0 24 32">
<path d="M14.004 0c-5.516 0-9.996 4.484-9.996 10h3.996c0-3.309 2.688-6 6-6 3.305 0 5.996 2.691 5.996 6v2h-20v14c0 3.309 2.695 6 6 6h12c3.305 0 6-2.691 6-6v-16c0-5.516-4.488-10-9.996-10zM12 24c-1.102 0-2-0.895-2-2s0.898-2 2-2c1.109 0 2 0.895 2 2s-0.891 2-2 2z"></path>
</symbol>
<symbol id="icon-target" viewBox="0 0 32 32">
<path d="M18.023 13.975h5.789c-0.734-2.836-2.953-5.057-5.789-5.789v5.789zM18.023 18.025v5.787c2.836-0.73 5.055-2.953 5.789-5.787h-5.789zM13.973 13.975v-5.789c-2.836 0.732-5.059 2.953-5.789 5.789h5.789zM13.973 18.025h-5.789c0.73 2.834 2.953 5.057 5.789 5.787v-5.787zM18.023 4.053c5.074 0.859 9.062 4.848 9.922 9.922h4.055c-0.926-7.311-6.664-13.051-13.977-13.975v4.053zM4.051 13.975c0.859-5.075 4.847-9.063 9.922-9.922v-4.053c-7.309 0.924-13.051 6.664-13.973 13.975h4.051zM13.973 27.945c-5.074-0.859-9.062-4.844-9.922-9.92h-4.051c0.922 7.311 6.664 13.053 13.973 13.975v-4.055zM27.945 18.025c-0.859 5.076-4.848 9.061-9.922 9.92v4.055c7.313-0.922 13.051-6.664 13.977-13.975h-4.055z"></path>
</symbol>
<symbol id="icon-home" viewBox="0 0 32 32">
<path d="M32 18.451l-16-12.42-16 12.42v-5.064l16-12.42 16 12.42zM28 18v12h-8v-8h-8v8h-8v-12l12-9z"></path>
</symbol>
<symbol id="icon-map2" viewBox="0 0 32 32">
<path d="M0 6l10-4v24l-10 4z"></path>
<path d="M12 1l10 6v23l-10-5z"></path>
<path d="M24 7l8-6v24l-8 6z"></path>
</symbol>
<symbol id="icon-map21" viewBox="0 0 32 32">
<path d="M21 6l-10-4-11 4v24l11-4 10 4 11-4v-24l-11 4zM12 4.554l8 3.2v19.692l-8-3.2v-19.692zM2 7.401l8-2.909v19.744l-8 2.909v-19.744zM30 24.599l-8 2.909v-19.744l8-2.909v19.744z"></path>
</symbol>
<symbol id="icon-bell" viewBox="0 0 32 32">
<path d="M32.047 25c0-9-8-7-8-14 0-0.58-0.056-1.076-0.158-1.498-0.526-3.532-2.88-6.366-5.93-7.23 0.027-0.123 0.041-0.251 0.041-0.382 0-1.040-0.9-1.891-2-1.891s-2 0.851-2 1.891c0 0.131 0.014 0.258 0.041 0.382-3.421 0.969-5.966 4.416-6.039 8.545-0.001 0.060-0.002 0.121-0.002 0.183 0 7-8 5-8 14 0 2.382 5.331 4.375 12.468 4.878 0.673 1.263 2.002 2.122 3.532 2.122s2.86-0.86 3.532-2.122c7.137-0.503 12.468-2.495 12.468-4.878 0-0.007-0.001-0.014-0.001-0.021l0.048 0.021zM25.82 26.691c-1.695 0.452-3.692 0.777-5.837 0.958-0.178-2.044-1.893-3.648-3.984-3.648s-3.805 1.604-3.984 3.648c-2.144-0.18-4.142-0.506-5.837-0.958-2.332-0.622-3.447-1.318-3.855-1.691 0.408-0.372 1.523-1.068 3.855-1.691 2.712-0.724 6.199-1.122 9.82-1.122s7.109 0.398 9.82 1.122c2.332 0.622 3.447 1.318 3.855 1.691-0.408 0.372-1.523 1.068-3.855 1.691z"></path>
</symbol>
<symbol id="icon-calendar1" viewBox="0 0 32 32">
<path d="M10 12h4v4h-4zM16 12h4v4h-4zM22 12h4v4h-4zM4 24h4v4h-4zM10 24h4v4h-4zM16 24h4v4h-4zM10 18h4v4h-4zM16 18h4v4h-4zM22 18h4v4h-4zM4 18h4v4h-4zM26 0v2h-4v-2h-14v2h-4v-2h-4v32h30v-32h-4zM28 30h-26v-22h26v22z"></path>
</symbol>
<symbol id="icon-cogs" viewBox="0 0 32 32">
<path d="M11.366 22.564l1.291-1.807-1.414-1.414-1.807 1.291c-0.335-0.187-0.694-0.337-1.071-0.444l-0.365-2.19h-2l-0.365 2.19c-0.377 0.107-0.736 0.256-1.071 0.444l-1.807-1.291-1.414 1.414 1.291 1.807c-0.187 0.335-0.337 0.694-0.443 1.071l-2.19 0.365v2l2.19 0.365c0.107 0.377 0.256 0.736 0.444 1.071l-1.291 1.807 1.414 1.414 1.807-1.291c0.335 0.187 0.694 0.337 1.071 0.444l0.365 2.19h2l0.365-2.19c0.377-0.107 0.736-0.256 1.071-0.444l1.807 1.291 1.414-1.414-1.291-1.807c0.187-0.335 0.337-0.694 0.444-1.071l2.19-0.365v-2l-2.19-0.365c-0.107-0.377-0.256-0.736-0.444-1.071zM7 27c-1.105 0-2-0.895-2-2s0.895-2 2-2 2 0.895 2 2-0.895 2-2 2zM32 12v-2l-2.106-0.383c-0.039-0.251-0.088-0.499-0.148-0.743l1.799-1.159-0.765-1.848-2.092 0.452c-0.132-0.216-0.273-0.426-0.422-0.629l1.219-1.761-1.414-1.414-1.761 1.219c-0.203-0.149-0.413-0.29-0.629-0.422l0.452-2.092-1.848-0.765-1.159 1.799c-0.244-0.059-0.492-0.109-0.743-0.148l-0.383-2.106h-2l-0.383 2.106c-0.251 0.039-0.499 0.088-0.743 0.148l-1.159-1.799-1.848 0.765 0.452 2.092c-0.216 0.132-0.426 0.273-0.629 0.422l-1.761-1.219-1.414 1.414 1.219 1.761c-0.149 0.203-0.29 0.413-0.422 0.629l-2.092-0.452-0.765 1.848 1.799 1.159c-0.059 0.244-0.109 0.492-0.148 0.743l-2.106 0.383v2l2.106 0.383c0.039 0.251 0.088 0.499 0.148 0.743l-1.799 1.159 0.765 1.848 2.092-0.452c0.132 0.216 0.273 0.426 0.422 0.629l-1.219 1.761 1.414 1.414 1.761-1.219c0.203 0.149 0.413 0.29 0.629 0.422l-0.452 2.092 1.848 0.765 1.159-1.799c0.244 0.059 0.492 0.109 0.743 0.148l0.383 2.106h2l0.383-2.106c0.251-0.039 0.499-0.088 0.743-0.148l1.159 1.799 1.848-0.765-0.452-2.092c0.216-0.132 0.426-0.273 0.629-0.422l1.761 1.219 1.414-1.414-1.219-1.761c0.149-0.203 0.29-0.413 0.422-0.629l2.092 0.452 0.765-1.848-1.799-1.159c0.059-0.244 0.109-0.492 0.148-0.743l2.106-0.383zM21 15.35c-2.402 0-4.35-1.948-4.35-4.35s1.948-4.35 4.35-4.35 4.35 1.948 4.35 4.35c0 2.402-1.948 4.35-4.35 4.35z"></path>
</symbol>
<symbol id="icon-meter" viewBox="0 0 32 32">
<path d="M16 2c8.837 0 16 7.163 16 16 0 6.025-3.331 11.271-8.25 14h-15.499c-4.92-2.729-8.25-7.975-8.25-14 0-8.837 7.163-16 16-16zM25.060 27.060c2.42-2.42 3.753-5.637 3.753-9.060h-2.813v-2h2.657c-0.219-1.406-0.668-2.755-1.33-4h-3.327v-2h2.009c-0.295-0.368-0.611-0.722-0.949-1.060-1.444-1.444-3.173-2.501-5.060-3.119v2.178h-2v-2.658c-0.656-0.102-1.324-0.155-2-0.155s-1.344 0.053-2 0.155v2.658h-2v-2.178c-1.887 0.617-3.615 1.674-5.060 3.119-0.338 0.338-0.654 0.692-0.949 1.060h2.009v2h-3.327c-0.662 1.245-1.111 2.594-1.33 4h2.657v2h-2.813c0 3.422 1.333 6.64 3.753 9.060 0.335 0.335 0.685 0.648 1.049 0.94h6.011l1.143-16h1.714l1.143 16h6.011c0.364-0.292 0.714-0.606 1.049-0.94z"></path>
</symbol>
<symbol id="icon-truck1" viewBox="0 0 32 32">
<path d="M32 18l-4-8h-6v-4c0-1.1-0.9-2-2-2h-18c-1.1 0-2 0.9-2 2v16l2 2h2.536c-0.341 0.588-0.536 1.271-0.536 2 0 2.209 1.791 4 4 4s4-1.791 4-4c0-0.729-0.196-1.412-0.536-2h11.073c-0.341 0.588-0.537 1.271-0.537 2 0 2.209 1.791 4 4 4s4-1.791 4-4c0-0.729-0.196-1.412-0.537-2h2.537v-6zM22 18v-6h4.146l3 6h-7.146z"></path>
</symbol>
<symbol id="icon-clipboard3" viewBox="0 0 32 32">
<path d="M29 4h-9c0-2.209-1.791-4-4-4s-4 1.791-4 4h-9c-0.552 0-1 0.448-1 1v26c0 0.552 0.448 1 1 1h26c0.552 0 1-0.448 1-1v-26c0-0.552-0.448-1-1-1zM16 2c1.105 0 2 0.895 2 2s-0.895 2-2 2c-1.105 0-2-0.895-2-2s0.895-2 2-2zM28 30h-24v-24h4v3c0 0.552 0.448 1 1 1h14c0.552 0 1-0.448 1-1v-3h4v24z"></path>
<path d="M14 26.828l-6.414-7.414 1.828-1.828 4.586 3.586 8.586-7.586 1.829 1.828z"></path>
</symbol>
<symbol id="icon-triangle-down" viewBox="0 0 20 20">
<path d="M5 6h10l-5 9-5-9z"></path>
</symbol>
<symbol id="icon-check" viewBox="0 0 20 20">
<path d="M8.294 16.998c-0.435 0-0.847-0.203-1.111-0.553l-3.573-4.721c-0.465-0.613-0.344-1.486 0.27-1.951 0.615-0.467 1.488-0.344 1.953 0.27l2.351 3.104 5.911-9.492c0.407-0.652 1.267-0.852 1.921-0.445s0.854 1.266 0.446 1.92l-6.984 11.21c-0.242 0.391-0.661 0.635-1.12 0.656-0.022 0.002-0.042 0.002-0.064 0.002z"></path>
</symbol>
<symbol id="icon-circle-with-cross" viewBox="0 0 20 20">
<path d="M10 1.6c-4.639 0-8.4 3.761-8.4 8.4s3.761 8.4 8.4 8.4 8.4-3.761 8.4-8.4c0-4.639-3.761-8.4-8.4-8.4zM14.789 13.061l-1.729 1.729-3.060-3.061-3.061 3.060-1.729-1.729 3.062-3.060-3.061-3.061 1.729-1.728 3.060 3.060 3.061-3.061 1.729 1.729-3.062 3.061 3.061 3.061z"></path>
</symbol>
<symbol id="icon-circle-with-minus" viewBox="0 0 20 20">
<path d="M10 1.6c-4.639 0-8.4 3.761-8.4 8.4s3.761 8.4 8.4 8.4 8.4-3.761 8.4-8.4c0-4.639-3.761-8.4-8.4-8.4zM15 11h-10v-2h10v2z"></path>
</symbol>
<symbol id="icon-circle-with-plus" viewBox="0 0 20 20">
<path d="M10 1.6c-4.639 0-8.4 3.761-8.4 8.4s3.761 8.4 8.4 8.4 8.4-3.761 8.4-8.4c0-4.639-3.761-8.4-8.4-8.4zM15 11h-4v4h-2v-4h-4v-2h4v-4h2v4h4v2z"></path>
</symbol>
<symbol id="icon-cross" viewBox="0 0 20 20">
<path d="M14.348 14.849c-0.469 0.469-1.229 0.469-1.697 0l-2.651-3.030-2.651 3.029c-0.469 0.469-1.229 0.469-1.697 0-0.469-0.469-0.469-1.229 0-1.697l2.758-3.15-2.759-3.152c-0.469-0.469-0.469-1.228 0-1.697s1.228-0.469 1.697 0l2.652 3.031 2.651-3.031c0.469-0.469 1.228-0.469 1.697 0s0.469 1.229 0 1.697l-2.758 3.152 2.758 3.15c0.469 0.469 0.469 1.229 0 1.698z"></path>
</symbol>
<symbol id="icon-cycle" viewBox="0 0 20 20">
<path d="M5.516 14.224c-2.262-2.432-2.222-6.244 0.128-8.611 0.962-0.969 2.164-1.547 3.414-1.736l-0.069-2.077c-1.755 0.213-3.452 0.996-4.797 2.351-3.149 3.17-3.187 8.289-0.123 11.531l-1.741 1.752 5.51 0.301-0.015-5.834-2.307 2.323zM12.163 2.265l0.015 5.834 2.307-2.322c2.262 2.434 2.222 6.246-0.128 8.611-0.961 0.969-2.164 1.547-3.414 1.736l0.069 2.076c1.755-0.213 3.452-0.996 4.798-2.35 3.148-3.172 3.186-8.291 0.122-11.531l1.741-1.754-5.51-0.3z"></path>
</symbol>
<symbol id="icon-location1" viewBox="0 0 20 20">
<path d="M19.367 18.102l-1.367-4.102h-1.5l0.833 4h-14.666l0.833-4h-1.5l-1.368 4.102c-0.347 1.044 0.268 1.898 1.368 1.898h16c1.1 0 1.715-0.854 1.367-1.898zM15 5c0-2.761-2.238-5-5-5s-5 2.239-5 5c0 4.775 5 10 5 10s5-5.225 5-10zM7.3 5.060c0-1.491 1.208-2.699 2.7-2.699s2.7 1.208 2.7 2.699c0 1.492-1.209 2.7-2.7 2.7s-2.7-1.209-2.7-2.7z"></path>
</symbol>
<symbol id="icon-tools" viewBox="0 0 20 20">
<path d="M3.135 6.89c0.933-0.725 1.707-0.225 2.74 0.971 0.116 0.135 0.272-0.023 0.361-0.1 0.088-0.078 1.451-1.305 1.518-1.361 0.066-0.059 0.146-0.169 0.041-0.292-0.107-0.123-0.494-0.625-0.743-0.951-1.808-2.365 4.946-3.969 3.909-3.994-0.528-0.014-2.646-0.039-2.963-0.004-1.283 0.135-2.894 1.334-3.705 1.893-1.061 0.726-1.457 1.152-1.522 1.211-0.3 0.262-0.048 0.867-0.592 1.344-0.575 0.503-0.934 0.122-1.267 0.414-0.165 0.146-0.627 0.492-0.759 0.607-0.133 0.117-0.157 0.314-0.021 0.471 0 0 1.264 1.396 1.37 1.52 0.105 0.122 0.391 0.228 0.567 0.071 0.177-0.156 0.632-0.553 0.708-0.623 0.078-0.066-0.050-0.861 0.358-1.177zM8.843 7.407c-0.12-0.139-0.269-0.143-0.397-0.029l-1.434 1.252c-0.113 0.1-0.129 0.283-0.027 0.4l8.294 9.439c0.194 0.223 0.53 0.246 0.751 0.053l0.97-0.813c0.222-0.195 0.245-0.533 0.052-0.758l-8.209-9.544zM19.902 3.39c-0.074-0.494-0.33-0.391-0.463-0.182-0.133 0.211-0.721 1.102-0.963 1.506-0.24 0.4-0.832 1.191-1.934 0.41-1.148-0.811-0.749-1.377-0.549-1.758 0.201-0.383 0.818-1.457 0.907-1.59 0.089-0.135-0.015-0.527-0.371-0.363s-2.523 1.025-2.823 2.26c-0.307 1.256 0.257 2.379-0.85 3.494l-1.343 1.4 1.349 1.566 1.654-1.57c0.394-0.396 1.236-0.781 1.998-0.607 1.633 0.369 2.524-0.244 3.061-1.258 0.482-0.906 0.402-2.814 0.327-3.308zM2.739 17.053c-0.208 0.209-0.208 0.549 0 0.758l0.951 0.93c0.208 0.209 0.538 0.121 0.746-0.088l4.907-4.824-1.503-1.714-5.101 4.938z"></path>
</symbol>
</defs>
</svg>
